<svg width="80" height="84" viewBox="0 0 110 114" fill="none" xmlns="http://www.w3.org/2000/svg" alt='logo'>
<path d="M54.6061 38.3193C50.8861 29.3193 47.7661 17.3193 54.8461 8.31934C61.2761 0.129337 74.2761 -2.16066 85.2461 2.37934C80.1261 5.37934 77.3461 16.0093 72.1261 22.3793C62.2061 34.5593 56.3661 34.5493 54.6061 38.3193Z" fill="#5B8F31"/>
<path d="M67.2161 9.07934C63.9261 11.7793 58.5461 16.1793 56.4361 23.3993C55.0417 28.1944 54.404 33.1777 54.5461 38.1693L54.6061 38.3193C56.3661 34.5493 62.2061 34.5593 72.1261 22.4093C77.3461 16.0093 80.1261 5.40934 85.2461 2.40934L85.0861 2.34934C78.3061 1.51934 70.3161 6.50934 67.2161 9.07934Z" fill="#55862D"/>
<path d="M56.4362 23.3993C58.5462 16.1793 63.9262 11.7793 67.2162 9.07933C70.3162 6.52933 78.3062 1.53933 85.0862 2.33933C74.1462 -2.14067 61.2462 0.169332 54.8462 8.32933C47.8462 17.3293 50.8462 29.2393 54.5462 38.1693C54.404 33.1777 55.0417 28.1944 56.4362 23.3993V23.3993Z" fill="#5C9E33"/>
<path d="M54.7661 42.3193C54.1828 38.298 54.1089 34.2192 54.5461 30.1793C55.0048 26.0966 56.2475 22.1409 58.2061 18.5293C60.2408 14.9645 62.9838 11.854 66.2661 9.38935C69.5291 6.9619 73.1177 5.00603 76.9261 3.57935C76.0361 4.05935 75.1461 4.57935 74.2461 4.98935C73.3461 5.39935 72.5161 5.98935 71.6461 6.51935C71.2161 6.77935 70.7761 7.01935 70.3561 7.29935L69.1261 8.16935L67.9061 9.07935C67.5061 9.37935 67.1361 9.71935 66.7461 10.0793C63.6286 12.5548 61.0204 15.6112 59.0661 19.0793C57.1417 22.5528 55.8675 26.3483 55.3061 30.2793C55.1561 31.2793 55.0561 32.2793 54.9361 33.2793L54.7561 36.2793V39.2793C54.7361 40.2993 54.7561 41.2993 54.7661 42.3193Z" fill="#2C602C"/>
<path d="M54.7861 19.2993C54.7818 20.427 54.9093 21.5513 55.1661 22.6493C55.3871 23.7334 55.6982 24.7971 56.0961 25.8293L55.6361 25.6393C56.3181 25.3953 57.0211 25.2145 57.7361 25.0993C58.4261 24.9693 59.1361 24.8893 59.8361 24.8093C60.5361 24.7293 61.2461 24.7193 61.9461 24.7093C62.6435 24.6933 63.3406 24.7503 64.0261 24.8793C63.3566 24.9134 62.6892 24.9801 62.0261 25.0793C61.3361 25.1693 60.6561 25.2893 59.9661 25.4093C59.2761 25.5293 58.5961 25.6593 57.9661 25.7893C57.2885 25.9085 56.6201 26.0756 55.9661 26.2893L55.6361 26.3993L55.5061 26.0993C55.2829 25.5535 55.1121 24.9876 54.9961 24.4093C54.8769 23.8443 54.7868 23.2736 54.7261 22.6993C54.653 22.129 54.6196 21.5543 54.6261 20.9793C54.6065 20.4148 54.6603 19.8501 54.7861 19.2993V19.2993Z" fill="#2C602C"/>
<path d="M58.5961 11.7194C58.6523 12.6245 58.7963 13.5221 59.0261 14.3994C59.2274 15.2451 59.5651 16.0523 60.0261 16.7894L59.6561 16.6394C61.2004 16.3672 62.7731 16.2933 64.3361 16.4194C65.8861 16.5099 67.4217 16.7681 68.9161 17.1894C67.3661 17.0894 65.8361 17.0494 64.3161 17.0494C62.8038 17.0277 61.2923 17.1281 59.7961 17.3494H59.5561L59.4261 17.1594C58.9025 16.3418 58.5614 15.4208 58.4261 14.4594C58.3216 13.5431 58.3792 12.6156 58.5961 11.7194V11.7194Z" fill="#2C602C"/>
<path d="M63.7561 5.75934C63.5713 7.5887 63.9186 9.43251 64.7561 11.0693L64.3761 10.8893C65.9258 10.6316 67.5025 10.5778 69.0661 10.7293C69.8415 10.7877 70.6128 10.8912 71.3761 11.0393C72.1391 11.1911 72.8859 11.4154 73.6061 11.7093C72.0916 11.4681 70.5598 11.351 69.0261 11.3593C67.5121 11.3132 65.9968 11.3935 64.4961 11.5993H64.2261L64.1161 11.3793C63.6827 10.5145 63.4274 9.57132 63.3656 8.60589C63.3038 7.64045 63.4366 6.67244 63.7561 5.75934V5.75934Z" fill="#2C602C"/>
<path d="M71.2661 3.01935C71.1661 3.64935 71.0761 4.26935 71.0261 4.88935C70.9675 5.48429 71.0013 6.08471 71.1261 6.66935L70.8261 6.49935C71.7718 6.27334 72.7453 6.18576 73.7161 6.23935C74.6778 6.28888 75.6258 6.48793 76.5261 6.82935C75.5916 6.70491 74.6486 6.65475 73.7061 6.67935C72.7785 6.6971 71.8546 6.80088 70.9461 6.98935H70.6961V6.75935C70.5461 6.10112 70.5461 5.41757 70.6961 4.75935C70.8167 4.15886 71.008 3.57479 71.2661 3.01935V3.01935Z" fill="#2C602C"/>
<path d="M80.2261 27.9093C74.5319 27.9146 68.9938 29.772 64.448 33.2013C59.9021 36.6305 56.5951 41.4455 55.0261 46.9193C53.3002 40.8149 49.4213 35.5424 44.1074 32.0777C38.7934 28.613 32.4042 27.1906 26.1223 28.0739C19.8404 28.9572 14.0912 32.0864 9.93869 36.8822C5.78624 41.678 3.51173 47.8157 3.53614 54.1593C3.53614 77.6493 24.0761 95.3093 39.2061 105.159C38.5661 103.249 37.3861 100.659 36.8061 99.0393C34.1061 91.5093 33.1761 86.9693 33.4461 81.6093L33.6761 54.4493C33.6761 54.3093 33.7039 54.1706 33.7578 54.0414C33.8117 53.9121 33.8906 53.7948 33.9901 53.6962C34.0896 53.5977 34.2077 53.5198 34.3374 53.4671C34.4672 53.4145 34.6061 53.388 34.7461 53.3893C35.0326 53.3893 35.3073 53.5031 35.5098 53.7057C35.7124 53.9082 35.8261 54.1829 35.8261 54.4693L36.4261 81.9793C37.1597 82.2302 37.9596 82.2053 38.6761 81.9093L39.1961 54.4293C39.2219 54.1621 39.3464 53.9141 39.5451 53.7336C39.7438 53.5531 40.0027 53.4531 40.2711 53.4531C40.5396 53.4531 40.7985 53.5531 40.9972 53.7336C41.1959 53.9141 41.3203 54.1621 41.3461 54.4293L41.7261 81.8993C42.5868 82.1836 43.5192 82.1624 44.3661 81.8393L44.7061 54.4293C44.7319 54.1621 44.8564 53.9141 45.0551 53.7336C45.2538 53.5531 45.5127 53.4531 45.7811 53.4531C46.0496 53.4531 46.3084 53.5531 46.5072 53.7336C46.7059 53.9141 46.8303 54.1621 46.8561 54.4293L47.3361 81.8093C48.0891 81.9978 48.8744 82.0183 49.6361 81.8693L50.2161 54.4393C50.2161 54.1529 50.3299 53.8782 50.5325 53.6757C50.735 53.4731 51.0097 53.3593 51.2961 53.3593C51.4362 53.358 51.5751 53.3845 51.7049 53.4371C51.8346 53.4898 51.9527 53.5677 52.0522 53.6662C52.1516 53.7648 52.2306 53.8821 52.2845 54.0114C52.3384 54.1406 52.3662 54.2793 52.3661 54.4193L52.6061 82.3493C52.8361 89.5793 52.8461 93.2793 50.2761 98.4393C49.0461 100.909 46.8561 105.739 46.8561 107.009V109.749C51.7461 112.489 55.0161 113.919 55.0161 113.919C55.0161 113.919 58.4161 112.519 63.4661 109.789C60.6961 105.439 56.2761 101.789 57.0961 91.7893C58.7761 71.0793 61.0961 54.0293 68.2161 52.7893C68.3453 52.766 68.478 52.7712 68.605 52.8046C68.7319 52.8379 68.85 52.8987 68.951 52.9825C69.052 53.0664 69.1335 53.1713 69.1896 53.2899C69.2458 53.4086 69.2753 53.5381 69.2761 53.6693V106.419C84.5161 97.1293 106.476 79.3593 106.476 54.1293C106.471 47.1718 103.703 40.5012 98.78 35.5842C93.8575 30.6673 87.1837 27.9067 80.2261 27.9093V27.9093Z" fill="#4A7D40"/>
<path d="M70.1861 108.739C80.8661 102.079 90.8861 94.0794 98.4661 83.9894C102.305 78.9921 105.289 73.3928 107.296 67.4193C107.726 65.9093 108.116 64.4193 108.526 62.8793C108.936 61.3393 109.036 59.7794 109.286 58.2294C109.536 56.6794 109.466 55.0994 109.556 53.5294C109.573 52.7453 109.549 51.961 109.486 51.1793C109.454 50.4008 109.368 49.6256 109.226 48.8593C108.759 45.7599 107.765 42.7632 106.286 39.9993C104.782 37.2475 102.832 34.7638 100.516 32.6493C98.2072 30.537 95.5606 28.8266 92.6861 27.5893C89.7922 26.3943 86.721 25.6848 83.5961 25.4893C77.3093 25.0721 71.0711 26.8382 65.9361 30.4893C60.7987 34.1261 57.0503 39.4014 55.3061 45.4493L55.0261 46.5093L54.7261 45.4493C53.0219 39.4916 49.3636 34.28 44.3396 30.6525C39.3155 27.025 33.2176 25.1924 27.0261 25.4494C20.8072 25.6801 14.8514 28.018 10.1361 32.0793C5.42572 36.1132 2.19527 41.6028 0.956136 47.6793L0.606136 49.9693C0.506136 50.7293 0.506136 51.4993 0.456136 52.2693C0.401168 53.0384 0.401168 53.8103 0.456136 54.5793L0.576136 56.8993C0.617921 57.6686 0.714837 58.4339 0.866136 59.1894L1.22614 61.4794C1.35778 62.2392 1.53477 62.9906 1.75614 63.7294L2.35614 65.9693C4.22191 71.8851 7.07924 77.4408 10.8061 82.3993C18.1361 92.3993 27.8061 100.499 38.1461 107.339C27.8061 100.579 18.0261 92.5793 10.5961 82.5793C6.82822 77.6028 3.93057 72.0238 2.02614 66.0793L1.41614 63.8194C1.19033 63.0743 1.01 62.3163 0.876136 61.5494L0.526136 59.2493C0.371538 58.4841 0.271287 57.7088 0.226136 56.9293L0.0961358 54.5993C0.0461611 53.8202 0.0461611 53.0385 0.0961358 52.2593C0.146136 51.4793 0.146136 50.6993 0.236136 49.9193L0.586136 47.5993C1.82868 41.4138 5.09764 35.8189 9.87614 31.6994C14.6741 27.5909 20.7113 25.2103 27.0221 24.9384C33.3329 24.6664 39.5525 26.5189 44.6861 30.1994C49.8053 33.9045 53.5425 39.2111 55.3061 45.2794H54.7061C56.5103 39.123 60.3539 33.763 65.6061 30.0793C70.8491 26.38 77.2036 24.5937 83.6061 25.0194C88.3794 25.3465 92.992 26.8772 97.0139 29.4686C101.036 32.0601 104.336 35.6279 106.606 39.8393C108.109 42.6477 109.123 45.6911 109.606 48.8393C109.748 49.6224 109.834 50.4143 109.866 51.2094C109.929 51.9977 109.953 52.7887 109.936 53.5793C109.836 55.1593 109.786 56.7494 109.646 58.3194C109.506 59.8894 109.156 61.4493 108.866 63.0093C108.576 64.5693 108.056 66.0693 107.616 67.5793C105.583 73.5646 102.576 79.1733 98.7161 84.1793C91.0261 94.2393 80.9161 102.169 70.1861 108.739Z" fill="#55862D"/>
<path d="M55.0261 46.9193C53.3002 40.8149 49.4213 35.5424 44.1074 32.0777C38.7934 28.613 32.4042 27.1906 26.1223 28.0739C19.8404 28.9572 14.0912 32.0864 9.93869 36.8822C5.78624 41.678 3.51173 47.8157 3.53614 54.1593C3.53614 77.6493 24.0761 95.3093 39.2061 105.159C38.5661 103.249 37.3861 100.659 36.8061 99.0393C34.1061 91.5093 33.1761 86.9693 33.4461 81.6093L33.6761 54.4493C33.6761 54.3093 33.7039 54.1706 33.7578 54.0414C33.8117 53.9121 33.8906 53.7948 33.9901 53.6962C34.0896 53.5977 34.2077 53.5198 34.3374 53.4671C34.4672 53.4145 34.6061 53.388 34.7461 53.3893C35.0326 53.3893 35.3073 53.5031 35.5098 53.7057C35.7124 53.9082 35.8261 54.1829 35.8261 54.4693L36.4261 81.9793C37.1597 82.2302 37.9596 82.2053 38.6761 81.9093L39.1961 54.4293C39.2219 54.1621 39.3464 53.9141 39.5451 53.7336C39.7438 53.5531 40.0027 53.4531 40.2711 53.4531C40.5396 53.4531 40.7985 53.5531 40.9972 53.7336C41.1959 53.9141 41.3203 54.1621 41.3461 54.4293L41.7261 81.8993C42.5868 82.1836 43.5192 82.1624 44.3661 81.8393L44.7061 54.4293C44.7319 54.1621 44.8564 53.9141 45.0551 53.7336C45.2538 53.5531 45.5127 53.4531 45.7811 53.4531C46.0496 53.4531 46.3084 53.5531 46.5072 53.7336C46.7059 53.9141 46.8303 54.1621 46.8561 54.4293L47.3361 81.8093C48.0891 81.9978 48.8744 82.0183 49.6361 81.8693L50.2161 54.4393C50.2161 54.1529 50.3299 53.8782 50.5325 53.6757C50.735 53.4731 51.0097 53.3593 51.2961 53.3593C51.4362 53.358 51.5751 53.3845 51.7049 53.4371C51.8346 53.4898 51.9527 53.5677 52.0522 53.6662C52.1516 53.7648 52.2306 53.8821 52.2845 54.0114C52.3384 54.1406 52.3662 54.2793 52.3661 54.4193L52.6061 82.3493C52.8361 89.5793 52.8461 93.2793 50.2761 98.4393C49.0461 100.909 46.8561 105.739 46.8561 107.009V109.749C51.7461 112.489 55.0161 113.919 55.0161 113.919V46.9193H55.0261Z" fill="#5EB14E"/>
</svg>
