<svg width="75" height="109" viewBox="0 0 75 109" fill="none" xmlns="http://www.w3.org/2000/svg">
<path d="M11.1613 76.6581C18.1067 83.3727 26.074 86.6021 35.2547 86.3144C43.9245 86.0426 48.7943 81.1825 49.4489 72.4216C44.0044 72.9012 38.5758 73.7805 33.1631 73.7965C14.626 73.8444 4.18394 64.476 1.27804 46.2187C-0.0950795 37.5857 0.623417 29.2564 3.06629 21.0071C6.43522 9.64025 14.2588 3.29337 25.8026 1.35894C35.3505 -0.239774 44.3077 0.911297 52.1473 7.466C58.6935 1.59874 65.9583 -0.303722 74.9315 3.45324C74.9315 7.45002 75.0113 11.6226 74.9315 15.7953C74.5163 34.676 74.2768 53.5568 73.4785 72.4056C73.255 77.6334 72.1693 83.1489 70.0138 87.8651C67.7625 92.7731 64.4574 97.7291 60.37 101.166C49.1615 110.567 26.0421 111.526 13.5084 103.948C2.2999 97.1696 0.990637 85.547 11.1773 76.6581H11.1613ZM50.9498 37.3938C50.9498 26.4587 47.4372 22.6378 37.4102 22.7017C29.2673 22.7497 23.3278 28.537 23.0723 36.6424C22.8168 44.8438 29.1076 51.1907 37.522 51.2227C47.7405 51.2547 50.9338 47.9613 50.9338 37.4098L50.9498 37.3938Z" fill="#2B9656"/>
</svg>
