<svg width="246" height="101" viewBox="0 0 246 101" fill="none" xmlns="http://www.w3.org/2000/svg">
<path d="M222.194 83.7508H23.8065C19.4419 83.7508 15.871 79.9917 15.871 75.3973V25.2761C15.871 20.6817 19.4419 16.9226 23.8065 16.9226H222.194C226.558 16.9226 230.129 20.6817 230.129 25.2761V75.3973C230.129 79.9917 226.558 83.7508 222.194 83.7508Z" fill="black"/>
<path d="M222.194 18.2592C225.876 18.2592 228.859 21.4001 228.859 25.2761V75.3973C228.859 79.2733 225.876 82.4143 222.194 82.4143H23.8065C20.1244 82.4143 17.1406 79.2733 17.1406 75.3973V25.2761C17.1406 21.4001 20.1244 18.2592 23.8065 18.2592H222.194ZM222.194 16.9226H23.8065C19.4419 16.9226 15.871 20.6817 15.871 25.2761V75.3973C15.871 79.9917 19.4419 83.7508 23.8065 83.7508H222.194C226.558 83.7508 230.129 79.9917 230.129 75.3973V25.2761C230.129 20.6817 226.558 16.9226 222.194 16.9226Z" fill="#A6A6A6"/>
<path d="M91.1311 34.0304C91.1311 35.4338 90.7343 36.5532 89.9408 37.3718C89.052 38.3576 87.8776 38.8588 86.4492 38.8588C85.0684 38.8588 83.9098 38.3576 82.9417 37.3551C81.9736 36.3527 81.4974 35.0997 81.4974 33.6295C81.4974 32.1425 81.9736 30.9062 82.9417 29.9038C83.9098 28.9014 85.0684 28.4001 86.4492 28.4001C87.1316 28.4001 87.7823 28.5338 88.4013 28.8178C89.0203 29.1018 89.5123 29.4694 89.8932 29.9372L89.052 30.8227C88.4172 30.0374 87.5602 29.6365 86.4492 29.6365C85.4493 29.6365 84.5764 30.004 83.8463 30.7558C83.1163 31.491 82.7512 32.46 82.7512 33.6462C82.7512 34.8324 83.1163 35.8014 83.8463 36.5365C84.5764 37.2716 85.4493 37.6559 86.4492 37.6559C87.5125 37.6559 88.4013 37.2883 89.1155 36.5365C89.5758 36.052 89.8456 35.367 89.9091 34.4982H86.4492V33.2953H91.0676C91.0994 33.5459 91.1311 33.7965 91.1311 34.0304Z" fill="white" stroke="white" stroke-width="0.2" stroke-miterlimit="10"/>
<path d="M98.4476 29.8547H94.1148V33.0291H98.0191V34.232H94.1148V37.4063H98.4476V38.6426H92.8928V28.6184H98.4476V29.8547Z" fill="white" stroke="white" stroke-width="0.2" stroke-miterlimit="10"/>
<path d="M103.606 38.6426H102.384V29.8547H99.7173V28.6184H106.256V29.8547H103.59V38.6426H103.606Z" fill="white" stroke="white" stroke-width="0.2" stroke-miterlimit="10"/>
<path d="M111.002 38.6426V28.6184H112.224V38.6426H111.002Z" fill="white" stroke="white" stroke-width="0.2" stroke-miterlimit="10"/>
<path d="M117.651 38.6426H116.429V29.8547H113.763V28.6184H120.302V29.8547H117.636V38.6426H117.651Z" fill="white" stroke="white" stroke-width="0.2" stroke-miterlimit="10"/>
<path d="M132.697 37.3382C131.761 38.3573 130.602 38.8585 129.206 38.8585C127.809 38.8585 126.65 38.3573 125.714 37.3382C124.778 36.3191 124.317 35.0827 124.317 33.6292C124.317 32.1757 124.778 30.9227 125.714 29.9202C126.65 28.9011 127.809 28.3999 129.206 28.3999C130.586 28.3999 131.745 28.9011 132.697 29.9202C133.634 30.9394 134.11 32.1757 134.11 33.6292C134.094 35.0994 133.634 36.3358 132.697 37.3382ZM126.619 36.5028C127.317 37.2547 128.19 37.6222 129.206 37.6222C130.221 37.6222 131.094 37.2547 131.793 36.5028C132.491 35.751 132.856 34.7987 132.856 33.6292C132.856 32.4597 132.507 31.5074 131.793 30.7556C131.094 30.0038 130.221 29.6362 129.206 29.6362C128.19 29.6362 127.317 30.0038 126.619 30.7556C125.92 31.5074 125.555 32.4597 125.555 33.6292C125.555 34.7987 125.92 35.751 126.619 36.5028Z" fill="white" stroke="white" stroke-width="0.2" stroke-miterlimit="10"/>
<path d="M135.824 38.6426V28.6184H137.316L141.95 36.4206H141.998L141.95 34.4826V28.6184H143.172V38.6426H141.902L137.062 30.4729H137.014L137.062 32.4109V38.6426H135.824Z" fill="white" stroke="white" stroke-width="0.2" stroke-miterlimit="10"/>
<path d="M124.016 53.261C120.286 53.261 117.239 56.2516 117.239 60.3615C117.239 64.4548 120.286 67.462 124.016 67.462C127.745 67.462 130.793 64.4548 130.793 60.3615C130.793 56.2516 127.745 53.261 124.016 53.261ZM124.016 64.672C121.968 64.672 120.207 62.901 120.207 60.3615C120.207 57.8053 121.968 56.0511 124.016 56.0511C126.063 56.0511 127.825 57.8053 127.825 60.3615C127.825 62.901 126.047 64.672 124.016 64.672ZM109.224 53.261C105.494 53.261 102.447 56.2516 102.447 60.3615C102.447 64.4548 105.494 67.462 109.224 67.462C112.954 67.462 116.001 64.4548 116.001 60.3615C116.001 56.2516 112.954 53.261 109.224 53.261ZM109.224 64.672C107.177 64.672 105.415 62.901 105.415 60.3615C105.415 57.8053 107.177 56.0511 109.224 56.0511C111.271 56.0511 113.033 57.8053 113.033 60.3615C113.033 62.901 111.271 64.672 109.224 64.672ZM91.639 55.4497V58.4569H98.4952C98.2889 60.1443 97.7493 61.3974 96.9399 62.2494C95.94 63.302 94.3847 64.4548 91.6549 64.4548C87.4332 64.4548 84.132 60.8795 84.132 56.4354C84.132 51.9913 87.4332 48.416 91.6549 48.416C93.9244 48.416 95.5909 49.3516 96.8129 50.5712L98.8285 48.4494C97.1145 46.7286 94.8449 45.4087 91.639 45.4087C85.8619 45.4087 81.0054 50.354 81.0054 56.4521C81.0054 62.5335 85.8619 67.4955 91.639 67.4955C94.7656 67.4955 97.1145 66.4262 98.9555 64.4046C100.844 62.4165 101.431 59.6097 101.431 57.3543C101.431 56.6526 101.384 56.001 101.273 55.4664H91.639V55.4497ZM163.55 57.7886C162.995 56.2015 161.281 53.261 157.773 53.261C154.298 53.261 151.409 56.1346 151.409 60.3615C151.409 64.3378 154.266 67.462 158.107 67.462C161.201 67.462 162.995 65.4739 163.725 64.3211L161.424 62.7005C160.662 63.8867 159.614 64.672 158.107 64.672C156.599 64.672 155.52 63.9368 154.837 62.5167L163.868 58.5906L163.55 57.7886ZM154.345 60.161C154.266 57.4211 156.361 56.0177 157.869 56.0177C159.043 56.0177 160.043 56.6359 160.376 57.5213L154.345 60.161ZM147.013 67.0444H149.981V46.1605H147.013V67.0444ZM142.156 54.8482H142.045C141.379 54.0128 140.109 53.261 138.49 53.261C135.11 53.261 132.015 56.3852 132.015 60.3949C132.015 64.3712 135.11 67.4787 138.49 67.4787C140.093 67.4787 141.379 66.7269 142.045 65.8582H142.14V66.8773C142.14 69.6005 140.76 71.0541 138.538 71.0541C136.728 71.0541 135.602 69.6841 135.141 68.5313L132.554 69.6674C133.3 71.5553 135.268 73.8609 138.538 73.8609C142.013 73.8609 144.95 71.7056 144.95 66.4596V53.6954H142.14V54.8482H142.156ZM138.744 64.672C136.697 64.672 134.983 62.8676 134.983 60.3949C134.983 57.8889 136.697 56.0678 138.744 56.0678C140.76 56.0678 142.347 57.9056 142.347 60.3949C142.363 62.8676 140.775 64.672 138.744 64.672ZM177.453 46.1605H170.359V67.0444H173.327V59.1252H177.469C180.754 59.1252 183.976 56.6191 183.976 52.6429C183.976 48.6666 180.723 46.1605 177.453 46.1605ZM177.517 56.2182H173.311V49.0508H177.517C179.739 49.0508 180.993 50.9889 180.993 52.6262C180.993 54.2634 179.739 56.2182 177.517 56.2182ZM195.832 53.2276C193.689 53.2276 191.467 54.23 190.547 56.4187L193.181 57.5715C193.737 56.4187 194.784 56.0344 195.879 56.0344C197.403 56.0344 198.974 57.0034 198.99 58.7242V58.9414C198.451 58.624 197.308 58.1395 195.895 58.1395C193.054 58.1395 190.182 59.7768 190.182 62.8342C190.182 65.6243 192.499 67.4286 195.102 67.4286C197.086 67.4286 198.197 66.493 198.879 65.3904H198.974V67.0109H201.831V59.0083C201.847 55.2993 199.212 53.2276 195.832 53.2276ZM195.467 64.672C194.499 64.672 193.15 64.154 193.15 62.901C193.15 61.2971 194.832 60.679 196.292 60.679C197.594 60.679 198.213 60.9797 198.99 61.3807C198.768 63.302 197.181 64.672 195.467 64.672ZM212.258 53.6787L208.862 62.7339H208.767L205.243 53.6787H202.053L207.338 66.3427L204.323 73.3763H207.418L215.56 53.6787H212.258ZM185.595 67.0444H188.563V46.1605H185.595V67.0444Z" fill="white"/>
<path d="M32.4402 29.5227C31.98 30.0406 31.7102 30.8426 31.7102 31.8617V68.8178C31.7102 69.8536 31.98 70.6555 32.4402 71.1567L32.5513 71.2737L52.2155 50.5903V50.3397V50.0891L32.5513 29.4058L32.4402 29.5227Z" fill="url(#paint0_linear_110_1467)"/>
<path d="M58.7702 57.487L52.2155 50.587V50.3364V50.0858L58.7702 43.1858L58.913 43.2693L66.6739 47.9139C68.8959 49.2338 68.8959 51.4057 66.6739 52.7422L58.913 57.3868L58.7702 57.487Z" fill="url(#paint1_linear_110_1467)"/>
<path d="M58.913 57.3873L52.2155 50.3369L32.4403 71.1539C33.1703 71.9726 34.3765 72.0728 35.7414 71.2542L58.913 57.3873Z" fill="url(#paint2_linear_110_1467)"/>
<path d="M58.913 43.2861L35.7255 29.4192C34.3606 28.6005 33.1544 28.7008 32.4244 29.5194L52.2155 50.3364L58.913 43.2861Z" fill="url(#paint3_linear_110_1467)"/>
<path opacity="0.2" d="M58.7704 57.2366L35.7257 71.0199C34.4402 71.7884 33.2816 71.7383 32.5515 71.0366L32.4404 71.1536L32.5515 71.2705C33.2975 71.9722 34.4402 72.0223 35.7257 71.2538L58.9132 57.3869L58.7704 57.2366Z" fill="black"/>
<path opacity="0.12" d="M32.4402 70.9316C31.98 70.411 31.7102 69.6051 31.7102 68.5808V68.8327C31.7102 69.8737 31.98 70.6797 32.4402 71.1834L32.5513 71.0659L32.4402 70.9316Z" fill="black"/>
<path opacity="0.12" d="M66.6739 52.5088L58.7543 57.2369L58.8971 57.3873L66.658 52.7427C67.769 52.0745 68.3245 51.2057 68.3245 50.3369C68.2451 51.1221 67.6897 51.9074 66.6739 52.5088Z" fill="black"/>
<path opacity="0.25" d="M35.7256 29.6534L66.6739 48.1648C67.6738 48.7663 68.2452 49.5348 68.3404 50.3367C68.3404 49.468 67.7849 48.5825 66.6739 47.9309L35.7256 29.4195C33.5036 28.0996 31.6943 29.2023 31.6943 31.8754V32.126C31.6943 29.4362 33.5195 28.3335 35.7256 29.6534Z" fill="white"/>
<defs>
<linearGradient id="paint0_linear_110_1467" x1="50.4692" y1="31.4769" x2="22.4676" y2="58.0772" gradientUnits="userSpaceOnUse">
<stop stop-color="#00A0FF"/>
<stop offset="0.00657445" stop-color="#00A1FF"/>
<stop offset="0.2601" stop-color="#00BEFF"/>
<stop offset="0.5122" stop-color="#00D2FF"/>
<stop offset="0.7604" stop-color="#00DFFF"/>
<stop offset="1" stop-color="#00E3FF"/>
</linearGradient>
<linearGradient id="paint1_linear_110_1467" x1="69.5694" y1="50.3388" x2="31.1666" y2="50.3388" gradientUnits="userSpaceOnUse">
<stop stop-color="#FFE000"/>
<stop offset="0.4087" stop-color="#FFBD00"/>
<stop offset="0.7754" stop-color="#FFA500"/>
<stop offset="1" stop-color="#FF9C00"/>
</linearGradient>
<linearGradient id="paint2_linear_110_1467" x1="55.2738" y1="54.173" x2="17.3014" y2="90.2451" gradientUnits="userSpaceOnUse">
<stop stop-color="#FF3A44"/>
<stop offset="1" stop-color="#C31162"/>
</linearGradient>
<linearGradient id="paint3_linear_110_1467" x1="27.4525" y1="17.2167" x2="44.4088" y2="33.3243" gradientUnits="userSpaceOnUse">
<stop stop-color="#32A071"/>
<stop offset="0.0685" stop-color="#2DA771"/>
<stop offset="0.4762" stop-color="#15CF74"/>
<stop offset="0.8009" stop-color="#06E775"/>
<stop offset="1" stop-color="#00F076"/>
</linearGradient>
</defs>
</svg>
