<svg width="580" height="50" viewBox="0 0 580 50" fill="none" xmlns="http://www.w3.org/2000/svg">
<path d="M510.75 1.47139e-06H578.617C578.798 -0.000276996 578.977 0.038973 579.143 0.115507C579.31 0.19204 579.462 0.304356 579.589 0.44603C579.717 0.587703 579.818 0.755956 579.887 0.941164C579.956 1.12637 579.992 1.3249 579.992 1.5254V48.4652C579.992 48.8698 579.847 49.2578 579.59 49.5438C579.332 49.8299 578.983 49.9906 578.619 49.9906H510.752C510.388 49.99 510.039 49.8291 509.782 49.5432C509.525 49.2573 509.38 48.8696 509.38 48.4652V1.52963C509.379 1.32914 509.414 1.1305 509.483 0.945079C509.551 0.759658 509.652 0.591093 509.78 0.449026C509.907 0.306958 510.058 0.194176 510.225 0.117128C510.391 0.0400801 510.57 0.000279165 510.75 1.47139e-06V1.47139e-06Z" fill="white"/>
<path d="M580 28.0896C580 28.0896 560.707 43.2207 525.369 50.0002H578.627C578.991 50.0002 579.341 49.8395 579.598 49.5534C579.855 49.2674 580 48.8794 580 48.4748V28.0896Z" fill="#F58220"/>
<path d="M546.376 12.5493C543.476 12.5493 541.126 15.0662 541.126 18.1721C541.126 21.475 543.375 23.9432 546.376 23.9432C549.302 23.9432 551.613 21.4411 551.613 18.2378C551.613 15.0344 549.317 12.5493 546.376 12.5493Z" fill="url(#paint0_radial_110_1527)"/>
<path d="M516.567 12.7539H513.744V23.6944H516.552C518.041 23.6944 519.12 23.3024 520.063 22.4232C520.619 21.9098 521.067 21.2676 521.376 20.5415C521.685 19.8154 521.847 19.023 521.852 18.2199C521.852 14.9996 519.673 12.7539 516.567 12.7539ZM518.811 20.9741C518.205 21.5821 517.423 21.8448 516.182 21.8448H515.669V14.6056H516.186C517.427 14.6056 518.178 14.8534 518.815 15.4911C519.151 15.8399 519.418 16.2627 519.598 16.7326C519.779 17.2024 519.869 17.709 519.863 18.2199C519.868 18.7347 519.777 19.2451 519.596 19.719C519.415 20.1929 519.147 20.6202 518.811 20.9741V20.9741Z" fill="#001722"/>
<path d="M524.657 12.7539H522.739V23.6965H524.657V12.7539Z" fill="#001722"/>
<path d="M529.354 16.9493C528.21 16.4748 527.861 16.1612 527.861 15.5722C527.861 14.8837 528.466 14.3583 529.293 14.3583C529.865 14.3583 530.342 14.621 530.845 15.2417L531.848 13.7841C531.052 12.9952 530.02 12.5626 528.954 12.5702C527.213 12.5702 525.883 13.9155 525.883 15.7015C525.883 17.212 526.502 17.9832 528.304 18.7078C528.766 18.8661 529.213 19.0748 529.638 19.3306C529.814 19.4477 529.959 19.6136 530.059 19.812C530.159 20.0104 530.211 20.2344 530.21 20.462C530.21 21.3475 529.573 22.0043 528.717 22.0043C528.278 22.0122 527.847 21.8785 527.474 21.6195C527.102 21.3604 526.806 20.9871 526.62 20.5446L525.381 21.8751C526.266 23.3157 527.33 23.9577 528.792 23.9577C530.786 23.9577 532.187 22.4746 532.187 20.356C532.187 18.6273 531.539 17.8391 529.354 16.9493Z" fill="#001722"/>
<path d="M532.791 18.2305C532.791 21.4487 535.065 23.9508 537.989 23.9508C538.826 23.9529 539.651 23.7351 540.397 23.3152V20.7919C539.635 21.6394 538.948 21.9889 538.077 21.9889C536.144 21.9889 534.769 20.4296 534.769 18.2136C534.769 16.1162 536.186 14.4573 537.989 14.4573C538.904 14.4573 539.598 14.8175 540.397 15.6882V13.1756C539.673 12.7336 538.86 12.5012 538.033 12.4997C537.35 12.4902 536.671 12.6312 536.037 12.9147C535.402 13.1981 534.825 13.6184 534.337 14.1512C533.85 14.684 533.462 15.3188 533.197 16.0189C532.931 16.7191 532.793 17.4708 532.791 18.2305V18.2305Z" fill="#001722"/>
<path d="M555.957 20.1033L553.328 12.7539H551.233L555.412 23.974H556.445L560.698 12.7539H558.616L555.957 20.1033Z" fill="#001722"/>
<path d="M561.57 23.6944H567.019V21.8427H563.49V18.8873H566.883V17.0356H563.49V14.6056H567.019V12.7539H561.57V23.6944Z" fill="#001722"/>
<path d="M574.619 15.9827C574.619 13.934 573.351 12.7539 571.136 12.7539H568.286V23.6944H570.207V19.2983H570.459L573.114 23.6944H575.477L572.375 19.0864C573.824 18.758 574.619 17.6564 574.619 15.9827ZM570.764 17.7962H570.205V14.4742H570.794C571.994 14.4742 572.642 15.0335 572.642 16.0992C572.644 17.1966 571.995 17.7962 570.764 17.7962Z" fill="#001722"/>
<path d="M575.973 13.5609C575.973 13.3692 575.857 13.2649 575.647 13.2649H575.367V14.2422H575.573V13.8653L575.815 14.2422H576.072L575.784 13.8419C575.841 13.8287 575.891 13.7928 575.926 13.7411C575.961 13.6894 575.977 13.6253 575.973 13.5609V13.5609ZM575.611 13.6929H575.573V13.4501H575.613C575.716 13.4501 575.767 13.4927 575.767 13.5736C575.767 13.6545 575.719 13.7014 575.611 13.7014V13.6929Z" fill="#231F20"/>
<path d="M575.689 12.9113C575.537 12.9083 575.388 12.9557 575.261 13.0475C575.134 13.1393 575.034 13.2712 574.975 13.4266C574.915 13.5819 574.898 13.7536 574.926 13.9198C574.954 14.086 575.025 14.2391 575.131 14.3597C575.237 14.4803 575.373 14.563 575.521 14.597C575.67 14.6311 575.824 14.6152 575.964 14.5512C576.104 14.4872 576.224 14.378 576.308 14.2377C576.393 14.0973 576.438 13.932 576.438 13.763C576.438 13.5396 576.359 13.3252 576.219 13.1659C576.079 13.0066 575.888 12.9152 575.689 12.9113ZM575.689 14.4507C575.565 14.4545 575.443 14.417 575.338 14.343C575.234 14.269 575.152 14.1619 575.102 14.0353C575.052 13.9087 575.038 13.7685 575.06 13.6325C575.082 13.4966 575.14 13.3711 575.226 13.2722C575.313 13.1732 575.424 13.1054 575.545 13.0772C575.666 13.0491 575.792 13.062 575.906 13.1143C576.021 13.1665 576.119 13.2558 576.188 13.3706C576.257 13.4854 576.293 13.6205 576.293 13.7587C576.294 13.8485 576.279 13.9376 576.249 14.0209C576.219 14.1043 576.175 14.1803 576.119 14.2445C576.063 14.3088 575.996 14.3601 575.922 14.3954C575.848 14.4308 575.769 14.4496 575.689 14.4507Z" fill="#231F20"/>
<path d="M530.957 26.5713L533.524 29.5756V26.7289H533.892V30.5721L531.323 27.572V30.4082H530.957V26.5713Z" fill="#231F20"/>
<path d="M530.921 26.5726V30.4478H531.355V27.6691L533.923 30.6693V26.6961H533.488V29.4897C533.378 29.3491 530.921 26.4832 530.921 26.4832V26.5726ZM530.989 26.6684L533.561 29.677V26.7663H533.858V30.4798L531.29 27.4775V30.369H530.991L530.989 26.6684Z" fill="#231F20"/>
<path d="M535.671 26.7285H537.387V27.1075H536.053V28.202H537.355V28.581H536.053V30.0267H537.387V30.4079H535.671V26.7285Z" fill="#231F20"/>
<path d="M537.379 26.6951H535.636V30.4532H537.413V29.9933H536.079V28.6114H537.379V28.1642H536.067V27.1486H537.402V26.6951H537.379ZM537.344 26.7717V27.0762H536.01V28.2473H537.312V28.5496H536.01V30.0699H537.344V30.3744H535.705V26.7653L537.344 26.7717Z" fill="#231F20"/>
<path d="M539.97 30.4079H539.603V27.1075H538.809V26.7285H540.775V27.1075H539.97V30.4079Z" fill="#231F20"/>
<path d="M540.775 26.6951H538.773V27.155H539.568V30.4532H540.005V27.1486H540.809V26.6951H540.775ZM540.741 26.7717V27.0762H539.936V30.3744H539.637V27.0698H538.844V26.7653L540.741 26.7717Z" fill="#231F20"/>
<path d="M543.229 29.4849L544.296 26.5359L545.362 29.4849L546.227 26.7297H546.626L545.362 30.5985L544.296 27.6346L543.229 30.5985L541.978 26.7297H542.359L543.229 29.4849Z" fill="#231F20"/>
<path d="M544.265 26.5235C544.265 26.5235 543.295 29.2021 543.23 29.3767C543.175 29.1979 542.388 26.6896 542.388 26.6896H541.919L543.228 30.7075C543.228 30.7075 544.237 27.9076 544.296 27.7393C544.355 27.9076 545.362 30.7075 545.362 30.7075L546.673 26.696H546.202C546.202 26.696 545.415 29.2043 545.36 29.3831C545.295 29.2085 544.296 26.4426 544.296 26.4426L544.265 26.5235ZM543.261 29.5045L544.296 26.647L545.363 29.5982C545.363 29.5982 546.235 26.8302 546.25 26.7705H546.576C546.543 26.8685 545.419 30.3179 545.36 30.4946L544.296 27.5371L543.23 30.4946L542.016 26.7705H542.34C542.355 26.8216 543.226 29.5982 543.226 29.5982L543.261 29.5045Z" fill="#231F20"/>
<path d="M551.37 28.5706C551.37 28.9496 551.27 29.3201 551.081 29.6353C550.893 29.9504 550.625 30.196 550.311 30.3411C549.998 30.4861 549.653 30.5241 549.32 30.4501C548.987 30.3762 548.681 30.1937 548.441 29.9257C548.202 29.6577 548.038 29.3162 547.972 28.9445C547.906 28.5728 547.94 28.1874 548.07 27.8373C548.199 27.4871 548.419 27.1878 548.701 26.9773C548.984 26.7667 549.315 26.6543 549.655 26.6543C550.11 26.6543 550.546 26.8562 550.868 27.2156C551.19 27.575 551.37 28.0624 551.37 28.5706V28.5706ZM548.301 28.5706C548.304 28.868 548.385 29.1579 548.535 29.4038C548.685 29.6497 548.896 29.8406 549.143 29.9525C549.39 30.0644 549.661 30.0923 549.922 30.0326C550.182 29.9729 550.422 29.8284 550.609 29.6172C550.797 29.406 550.924 29.1376 550.975 28.8457C551.027 28.5538 550.999 28.2515 550.897 27.9769C550.795 27.7023 550.622 27.4676 550.401 27.3023C550.179 27.1371 549.919 27.0486 549.653 27.0482C549.294 27.0516 548.951 27.2129 548.698 27.4971C548.445 27.7813 548.302 28.1655 548.301 28.5664V28.5706Z" fill="#231F20"/>
<path d="M547.901 28.5707C547.898 28.9583 547.999 29.3379 548.19 29.6613C548.381 29.9848 548.654 30.2376 548.974 30.3877C549.294 30.5377 549.647 30.5783 549.987 30.5042C550.328 30.4302 550.641 30.2448 550.887 29.9717C551.133 29.6985 551.301 29.3499 551.37 28.97C551.439 28.5901 551.405 28.196 551.272 27.8377C551.14 27.4794 550.915 27.173 550.627 26.9574C550.339 26.7418 550 26.6267 549.653 26.6267C549.423 26.6256 549.196 26.675 548.984 26.7722C548.771 26.8693 548.578 27.0123 548.416 27.1928C548.253 27.3734 548.124 27.5881 548.035 27.8245C547.947 28.0609 547.901 28.3145 547.901 28.5707V28.5707ZM547.967 28.5707C547.964 28.1976 548.059 27.8316 548.242 27.5193C548.425 27.2069 548.687 26.9624 548.994 26.8166C549.302 26.6709 549.641 26.6306 549.97 26.7008C550.298 26.771 550.6 26.9486 550.837 27.2109C551.075 27.4733 551.237 27.8086 551.304 28.1743C551.371 28.54 551.338 28.9196 551.211 29.2647C551.084 29.6099 550.868 29.9052 550.591 30.1129C550.313 30.3207 549.987 30.4317 549.653 30.4317C549.209 30.4328 548.782 30.2378 548.467 29.8892C548.151 29.5405 547.971 29.0666 547.967 28.5707V28.5707Z" fill="#231F20"/>
<path d="M548.268 28.5654C548.271 28.8705 548.354 29.168 548.507 29.4205C548.66 29.673 548.877 29.8691 549.13 29.9842C549.383 30.0994 549.661 30.1283 549.929 30.0674C550.196 30.0065 550.442 29.8584 550.634 29.642C550.827 29.4255 550.958 29.1502 551.01 28.8509C551.063 28.5515 551.035 28.2414 550.93 27.9597C550.826 27.6779 550.649 27.4371 550.421 27.2675C550.194 27.098 549.927 27.0073 549.654 27.0068C549.285 27.0085 548.932 27.1736 548.673 27.4659C548.413 27.7581 548.267 28.1536 548.268 28.5654V28.5654ZM548.339 28.5654C548.343 28.2758 548.423 27.9939 548.57 27.7551C548.717 27.5163 548.923 27.3313 549.164 27.2234C549.405 27.1154 549.668 27.0894 549.922 27.1484C550.176 27.2075 550.409 27.3491 550.591 27.5554C550.773 27.7617 550.896 28.0235 550.946 28.3078C550.995 28.5922 550.968 28.8865 550.868 29.1538C550.767 29.421 550.599 29.6492 550.383 29.8097C550.167 29.9702 549.914 30.0559 549.654 30.0559C549.48 30.0551 549.308 30.0158 549.147 29.9404C548.986 29.8649 548.841 29.7548 548.718 29.6163C548.596 29.4778 548.499 29.3137 548.434 29.1334C548.368 28.953 548.335 28.76 548.337 28.5654H548.339Z" fill="#231F20"/>
<path d="M553.327 30.4079H552.961V26.7285H553.437C554.061 26.7285 554.642 26.9138 554.642 27.742C554.649 27.8696 554.633 27.9973 554.595 28.1177C554.557 28.2382 554.497 28.349 554.421 28.4435C554.344 28.5381 554.251 28.6146 554.147 28.6686C554.043 28.7225 553.931 28.7528 553.817 28.7577L554.865 30.4079H554.413L553.42 28.7896H553.327V30.4079ZM553.327 28.4298H553.441C553.855 28.4298 554.276 28.3425 554.276 27.7718C554.276 27.1671 553.878 27.1075 553.437 27.1075H553.327V28.4298Z" fill="#231F20"/>
<path d="M552.96 26.6947H552.926V30.4528H553.362V28.8239H553.416C553.416 28.8516 554.384 30.423 554.384 30.423L554.863 30.44H554.941L553.883 28.7728C554.11 28.749 554.321 28.6278 554.471 28.4345C554.62 28.2413 554.697 27.991 554.685 27.7359C554.685 27.0268 554.281 26.6819 553.446 26.6819L552.96 26.6947ZM553.437 26.7713C554.235 26.7713 554.607 27.0822 554.607 27.7486C554.613 27.8712 554.598 27.9938 554.561 28.1095C554.524 28.2252 554.467 28.3316 554.394 28.4226C554.32 28.5135 554.231 28.5871 554.131 28.6392C554.032 28.6913 553.924 28.7208 553.814 28.726H553.753C553.753 28.726 554.727 30.2569 554.8 30.3676H554.418C554.418 30.3399 553.45 28.7686 553.45 28.7686L553.33 28.7536H553.296V30.3676H552.998V26.7649L553.437 26.7713Z" fill="#231F20"/>
<path d="M553.327 27.0674H553.292V28.4663H553.441C553.845 28.4663 554.31 28.3854 554.31 27.77C554.31 27.1206 553.858 27.0674 553.437 27.0674H553.327ZM553.437 27.1462C553.86 27.1462 554.24 27.1909 554.24 27.77C554.24 28.3151 553.837 28.3875 553.441 28.3875H553.363V27.1462H553.437Z" fill="#231F20"/>
<path d="M558.191 26.7285H558.683L557.137 28.4426L558.737 30.4079H558.23L556.878 28.7194L556.786 28.8194V30.4079H556.42V26.7285H556.786V28.3042L558.191 26.7285Z" fill="#231F20"/>
<path d="M558.682 26.6943H558.181C558.181 26.6943 556.93 28.0954 556.826 28.2189V26.6943H556.391V30.4524H556.826V28.8236C556.846 28.8092 556.864 28.7912 556.879 28.7703L558.213 30.4311L558.745 30.4439H558.823C558.823 30.4439 557.237 28.4914 557.192 28.4403L558.774 26.6858L558.682 26.6943ZM558.598 26.771C558.49 26.8945 557.089 28.4467 557.089 28.4467L558.658 30.3737H558.229C558.229 30.3545 556.894 28.6979 556.894 28.6979L556.871 28.6681L556.755 28.798C556.755 28.798 556.745 30.3013 556.745 30.3737H556.446V26.7646H556.745V28.3977L558.196 26.7646L558.598 26.771Z" fill="#231F20"/>
<path d="M474.167 0H411.809C409.753 0 408.086 1.90085 408.086 4.24567V45.7471C408.086 48.0919 409.753 49.9927 411.809 49.9927H474.167C476.223 49.9927 477.89 48.0919 477.89 45.7471V4.24567C477.89 1.90085 476.223 0 474.167 0Z" fill="white"/>
<path d="M467.738 25.1917C467.738 22.1756 467.196 19.3386 466.112 16.6805C465.028 14.0225 463.589 11.793 461.792 9.99204C459.996 8.19109 457.912 6.76985 455.54 5.72834C453.167 4.68682 450.702 4.16606 448.145 4.16606H439.329C435.893 4.16606 432.735 5.04484 429.855 6.8024C426.975 8.55996 424.681 11.0553 422.972 14.2883C421.264 17.5213 420.41 21.1558 420.41 25.1917C420.41 28.9021 421.259 32.3467 422.958 35.5254C424.656 38.7042 426.96 41.2158 429.869 43.0602C432.779 44.9045 435.932 45.8267 439.329 45.8267H448.145C450.663 45.8267 453.118 45.2788 455.51 44.183C457.902 43.0873 459.996 41.6227 461.792 39.7891C463.589 37.9556 465.028 35.7587 466.112 33.1983C467.196 30.6379 467.738 27.969 467.738 25.1917ZM477.812 4.16606V45.8267C477.812 46.955 477.441 47.9314 476.699 48.7559C475.957 49.5805 475.079 49.9927 474.064 49.9927H411.835C410.819 49.9927 409.941 49.5805 409.199 48.7559C408.457 47.9314 408.086 46.955 408.086 45.8267V4.16606C408.086 3.03775 408.457 2.06133 409.199 1.2368C409.941 0.412267 410.819 0 411.835 0H474.064C475.079 0 475.957 0.412267 476.699 1.2368C477.441 2.06133 477.812 3.03775 477.812 4.16606Z" fill="white"/>
<path d="M435.465 36.2258V13.6706C433.395 14.5602 431.716 16.0302 430.427 18.0807C429.139 20.1312 428.494 22.4258 428.494 24.9645C428.494 27.5032 429.139 29.7977 430.427 31.8482C431.716 33.8987 433.395 35.3579 435.465 36.2258ZM450.225 24.9645C450.225 22.4258 449.581 20.1312 448.292 18.0807C447.004 16.0302 445.325 14.5602 443.255 13.6706V36.2584C445.325 35.3688 447.004 33.8987 448.292 31.8482C449.581 29.7977 450.225 27.5032 450.225 24.9645ZM456.522 24.9645C456.522 28.4145 455.756 31.6041 454.223 34.5334C452.69 37.4626 450.606 39.7789 447.97 41.4822C445.334 43.1855 442.464 44.0372 439.36 44.0372C437.036 44.0372 434.815 43.5327 432.697 42.5237C430.579 41.5148 428.753 40.1586 427.22 38.4553C425.688 36.752 424.467 34.7232 423.559 32.369C422.652 30.0147 422.198 27.5466 422.198 24.9645C422.198 21.5145 422.964 18.3248 424.497 15.3956C426.029 12.4663 428.114 10.15 430.749 8.44672C433.385 6.74341 436.255 5.89175 439.36 5.89175C442.464 5.89175 445.334 6.74341 447.97 8.44672C450.606 10.15 452.69 12.4663 454.223 15.3956C455.756 18.3248 456.522 21.5145 456.522 24.9645ZM467.739 25.1923C467.739 22.1763 467.197 19.3392 466.114 16.6812C465.03 14.0232 463.59 11.7937 461.794 9.99271C459.997 8.19176 457.913 6.77053 455.541 5.72902C453.169 4.6875 450.704 4.16675 448.146 4.16675H439.331C435.894 4.16675 432.736 5.04552 429.856 6.80308C426.976 8.56063 424.682 11.0559 422.974 14.289C421.265 17.522 420.411 21.1564 420.411 25.1923C420.411 28.9027 421.26 32.3473 422.959 35.5261C424.658 38.7049 426.962 41.2164 429.871 43.0608C432.78 44.9051 435.933 45.8273 439.331 45.8273H448.146C450.665 45.8273 453.12 45.2794 455.512 44.1837C457.903 43.0879 459.997 41.6233 461.794 39.7898C463.59 37.9563 465.03 35.7593 466.114 33.1989C467.197 30.6386 467.739 27.9697 467.739 25.1923Z" fill="#3086C8"/>
<path d="M372.875 0H310.517C308.461 0 306.794 1.90085 306.794 4.24567V45.7471C306.794 48.0919 308.461 49.9927 310.517 49.9927H372.875C374.931 49.9927 376.598 48.0919 376.598 45.7471V4.24567C376.598 1.90085 374.931 0 372.875 0Z" fill="white"/>
<path d="M348.761 12.261C347.511 10.678 345.252 9.99927 342.362 9.99927H333.974C333.688 9.99928 333.411 10.1127 333.194 10.319C332.976 10.5254 332.832 10.8112 332.787 11.125L329.295 35.7419C329.225 36.2273 329.563 36.6669 330.006 36.6669H335.185L336.485 27.4995L336.445 27.7866C336.537 27.1386 337.036 26.6607 337.627 26.6607H340.088C344.922 26.6607 348.707 24.4785 349.813 18.1661C349.846 17.9794 349.874 17.7977 349.899 17.6202C349.759 17.538 349.759 17.538 349.899 17.6202C350.228 15.287 349.896 13.6989 348.761 12.261" fill="#27346A"/>
<path d="M338.467 16.7797C338.608 16.7048 338.763 16.6659 338.92 16.6661H345.496C346.275 16.6661 347.001 16.7224 347.665 16.8411C347.85 16.874 348.035 16.9133 348.219 16.9589C348.479 17.0227 348.736 17.1008 348.989 17.1928C349.315 17.314 349.619 17.455 349.899 17.6202C350.228 15.2861 349.896 13.6989 348.761 12.261C347.51 10.678 345.252 9.99927 342.362 9.99927H333.973C333.382 9.99927 332.88 10.4771 332.787 11.125L329.295 35.741C329.225 36.2272 329.563 36.6662 330.005 36.6662H335.185L337.883 17.6509C337.909 17.464 337.976 17.287 338.078 17.1353C338.18 16.9835 338.313 16.8615 338.467 16.7797V16.7797Z" fill="#27346A"/>
<path d="M349.813 18.1658C348.707 24.4773 344.922 26.6604 340.088 26.6604H337.626C337.036 26.6604 336.537 27.1383 336.445 27.7863L334.827 39.1849C334.767 39.6097 335.062 39.9946 335.449 39.9946H339.814C340.065 39.9946 340.306 39.8953 340.497 39.7148C340.687 39.5343 340.813 39.2843 340.852 39.0098L340.894 38.7626L341.717 32.9678L341.77 32.6475C341.809 32.3731 341.935 32.1231 342.125 31.9426C342.315 31.7621 342.557 31.6628 342.807 31.6627H343.46C347.689 31.6627 351 29.7535 351.968 24.2318C352.372 21.9243 352.163 19.9978 351.094 18.6446C350.77 18.2347 350.368 17.8962 349.899 17.6199C349.873 17.7983 349.846 17.9791 349.813 18.1658V18.1658Z" fill="#2790C3"/>
<path d="M348.742 17.1077C348.569 17.0518 348.395 17.0022 348.22 16.9592C348.036 16.9143 347.852 16.8753 347.666 16.8422C347.001 16.7227 346.276 16.6663 345.496 16.6663H338.921C338.764 16.6659 338.609 16.705 338.468 16.7808C338.314 16.8623 338.181 16.9843 338.079 17.1361C337.977 17.2879 337.91 17.465 337.884 17.652L336.486 27.4998L336.446 27.7869C336.538 27.1389 337.037 26.661 337.627 26.661H340.089C344.923 26.661 348.708 24.4788 349.814 18.1664C349.847 17.9797 349.874 17.7988 349.9 17.6205C349.62 17.4562 349.317 17.3143 348.99 17.194C348.908 17.1636 348.825 17.1349 348.742 17.1077" fill="#1F264F"/>
<path d="M271.508 0H207.934C205.837 0 204.138 1.90085 204.138 4.24567V45.7471C204.138 48.0919 205.837 49.9927 207.934 49.9927H271.508C273.604 49.9927 275.304 48.0919 275.304 45.7471V4.24567C275.304 1.90085 273.604 0 271.508 0Z" fill="#2557D6"/>
<path fill-rule="evenodd" clip-rule="evenodd" d="M204.138 23.4777H207.557L208.327 21.4069H210.053L210.822 23.4777H217.547V21.8946L218.147 23.4846H221.639L222.239 21.871V23.4778H238.954L238.946 20.0785H239.269C239.496 20.0873 239.562 20.1106 239.562 20.5271V23.4778H248.207V22.6865C248.904 23.1026 249.989 23.4778 251.416 23.4778H255.053L255.831 21.407H257.557L258.318 23.4778H265.326V21.5108L266.387 23.4778H272.004V10.4746H266.445V12.0103L265.667 10.4746H259.964V12.0103L259.249 10.4746H251.545C250.256 10.4746 249.122 10.6751 248.207 11.2338V10.4746H242.891V11.2338C242.308 10.6579 241.514 10.4746 240.631 10.4746H221.209L219.906 13.833L218.568 10.4746H212.45V12.0103L211.778 10.4746H206.561L204.138 16.6569V23.4777H204.138ZM225.715 21.6022H223.664L223.657 14.3003L220.756 21.6021H218.999L216.091 14.2938V21.6021H212.022L211.253 19.5225H207.087L206.311 21.6021H204.138L207.721 12.2789H210.693L214.096 21.1061V12.2789H217.361L219.979 18.6036L222.384 12.2789H225.715V21.6021H225.715L225.715 21.6022ZM210.569 17.5876L209.2 13.8708L207.838 17.5876H210.569ZM233.878 21.602H227.194V12.2788H233.878V14.2202H229.195V15.9008H233.765V17.8119H229.195V19.6738H233.877V21.602H233.878ZM243.296 14.7898C243.296 16.2762 242.405 17.0442 241.886 17.2748C242.324 17.4603 242.698 17.7883 242.876 18.0599C243.158 18.5236 243.207 18.9378 243.207 19.7705V21.602H241.189L241.181 20.4262C241.181 19.8653 241.23 19.0585 240.866 18.6099C240.573 18.282 240.128 18.2108 239.407 18.2108H237.26V21.6021H235.259V12.2788H239.861C240.883 12.2788 241.636 12.3088 242.283 12.7253C242.916 13.1418 243.296 13.7498 243.296 14.7898V14.7898ZM240.767 16.1741C240.492 16.3601 240.167 16.3662 239.777 16.3662H237.347V14.2954H239.81C240.159 14.2954 240.523 14.3128 240.759 14.4635C241.018 14.5994 241.179 14.8884 241.179 15.2877C241.179 15.6953 241.026 16.0232 240.767 16.1741V16.1741ZM246.504 21.602H244.463V12.2788H246.504V21.602ZM270.201 21.602H267.366L263.574 14.6044V21.602H259.5L258.721 19.5224H254.565L253.81 21.602H251.469C250.496 21.602 249.265 21.3624 248.568 20.5708C247.865 19.7792 247.499 18.7069 247.499 17.0115C247.499 15.6288 247.718 14.3648 248.578 13.3659C249.224 12.6219 250.237 12.2788 251.616 12.2788H253.553V14.2765H251.656C250.926 14.2765 250.514 14.3975 250.117 14.8287C249.776 15.2214 249.542 15.9634 249.542 16.9406C249.542 17.9394 249.72 18.6597 250.092 19.1301C250.4 19.4991 250.96 19.611 251.486 19.611H252.385L255.204 12.2791H258.202L261.589 21.0975V12.2792H264.635L268.152 18.7723V12.2792H270.201V21.6021L270.201 21.602ZM258.041 17.5877L256.656 13.8709L255.279 17.5877H258.041H258.041ZM275.299 36.4887C274.813 37.2803 273.866 37.6817 272.585 37.6817H268.721V35.682H272.569C272.95 35.682 273.218 35.626 273.378 35.4511C273.454 35.3738 273.514 35.2798 273.554 35.175C273.595 35.0703 273.616 34.9571 273.615 34.8429C273.615 34.5712 273.518 34.3555 273.371 34.2262C273.225 34.0839 273.014 34.0192 272.666 34.0192C270.787 33.9481 268.444 34.0839 268.444 31.1328C268.444 29.7803 269.215 28.3565 271.314 28.3565H275.299V26.5011H271.597C270.479 26.5011 269.668 26.7992 269.093 27.2626V26.501H263.616C262.741 26.501 261.713 26.7429 261.226 27.2626V26.501H251.447V27.2626C250.668 26.6372 249.355 26.501 248.749 26.501H242.298V27.2626C241.683 26.5984 240.313 26.501 239.479 26.501H232.259L230.607 28.4926L229.06 26.501H218.275V39.5131H228.857L230.559 37.4901L232.163 39.5131L238.685 39.5196V36.4587H239.326C240.192 36.4736 241.212 36.4347 242.113 36.0012V39.5129H247.493V36.1215H247.752C248.083 36.1215 248.116 36.1367 248.116 36.5053V39.5126H264.459C265.497 39.5126 266.581 39.2168 267.182 38.6799V39.5126H272.366C273.444 39.5126 274.498 39.3442 275.299 38.9128V36.4887ZM242.895 31.4837C242.895 34.0742 241.16 34.6091 239.411 34.6091H236.915V37.737H233.027L230.563 34.6498L228.003 37.737H220.078V28.4115H228.125L230.586 31.4682L233.131 28.4115H239.524C241.111 28.4115 242.895 28.9011 242.895 31.4837H242.895ZM226.989 35.7755H222.071V33.92H226.463V32.0173H222.071V30.3219H227.086L229.275 33.0396L226.989 35.7755ZM234.915 36.8432L231.844 33.0447L234.915 29.3667V36.8432ZM239.458 32.6967H236.872V30.3219H239.481C240.203 30.3219 240.705 30.6499 240.705 31.4654C240.705 32.2718 240.226 32.6967 239.458 32.6967H239.458ZM253.002 28.4115H259.679V30.3401H254.995V32.0355H259.565V33.938H254.995V35.7935L259.679 35.802V37.737H253.002V28.4115H253.002ZM250.435 33.4033C250.88 33.5863 251.245 33.9145 251.415 34.1861C251.698 34.6414 251.739 35.0663 251.747 35.8883V37.737H249.738V36.5703C249.738 36.0092 249.787 35.1785 249.415 34.7448C249.122 34.4108 248.677 34.3309 247.947 34.3309H245.809V37.737H243.799V28.4115H248.418C249.43 28.4115 250.168 28.4614 250.825 28.8515C251.456 29.2765 251.853 29.8586 251.853 30.9224C251.853 32.4109 250.962 33.1704 250.435 33.4032V33.4033ZM249.304 32.2243C249.037 32.4012 248.706 32.4164 248.317 32.4164H245.886V30.3219H248.35C248.706 30.3219 249.062 30.3304 249.304 30.4904C249.564 30.6414 249.719 30.9302 249.719 31.3292C249.719 31.7283 249.564 32.0497 249.304 32.2243ZM267.365 32.8184C267.755 33.2673 267.963 33.8343 267.963 34.7941C267.963 36.8002 266.838 37.7366 264.82 37.7366H260.924V35.7369H264.805C265.184 35.7369 265.453 35.681 265.622 35.5061C265.76 35.3618 265.858 35.1523 265.858 34.8979C265.858 34.6262 265.752 34.4105 265.614 34.2812C265.461 34.139 265.25 34.0742 264.902 34.0742C263.031 34.0031 260.688 34.139 260.688 31.1879C260.688 29.8353 261.451 28.4115 263.548 28.4115H267.559V30.3963H263.889C263.525 30.3963 263.289 30.4115 263.087 30.5648C262.868 30.7157 262.787 30.9399 262.787 31.2356C262.787 31.5874 262.973 31.8268 263.225 31.9303C263.436 32.012 263.662 32.036 264.003 32.036L265.08 32.0684C266.166 32.0979 266.912 32.3071 267.365 32.8184V32.8184ZM275.304 30.3219H271.657C271.293 30.3219 271.052 30.3371 270.848 30.4904C270.637 30.6414 270.555 30.8655 270.555 31.1614C270.555 31.5131 270.734 31.7525 270.993 31.856C271.204 31.9377 271.431 31.9617 271.764 31.9617L272.848 31.994C273.942 32.0241 274.673 32.2336 275.118 32.7446C275.199 32.8157 275.248 32.8955 275.304 32.9755V30.3219Z" fill="white"/>
<path d="M168.925 0H106.567C104.511 0 102.844 1.90085 102.844 4.24567V45.7471C102.844 48.0919 104.511 49.9927 106.567 49.9927H168.925C170.981 49.9927 172.648 48.0919 172.648 45.7471V4.24567C172.648 1.90085 170.981 0 168.925 0Z" fill="#F4F4F4"/>
<path fill-rule="evenodd" clip-rule="evenodd" d="M160.418 44.8072C160.305 44.8104 160.212 44.8531 160.139 44.9353C160.066 45.0177 160.028 45.1207 160.025 45.2443C160.028 45.3671 160.066 45.4699 160.139 45.5526C160.212 45.6353 160.305 45.6782 160.418 45.6815C160.528 45.6783 160.62 45.6352 160.693 45.5526C160.766 45.4698 160.804 45.3671 160.807 45.2443C160.804 45.1207 160.767 45.0177 160.693 44.9354C160.62 44.8531 160.528 44.8103 160.418 44.8072V44.8072ZM160.418 45.5851C160.332 45.5827 160.261 45.5495 160.205 45.4854C160.149 45.4215 160.12 45.341 160.118 45.2444C160.12 45.1472 160.149 45.067 160.205 45.0035C160.261 44.9399 160.332 44.907 160.418 44.9048C160.502 44.907 160.572 44.9399 160.627 45.0035C160.683 45.067 160.711 45.1472 160.713 45.2444C160.711 45.341 160.683 45.4215 160.627 45.4854C160.572 45.5495 160.502 45.5827 160.418 45.5851ZM160.44 45.0397H160.276V45.4458H160.352V45.2937H160.387L160.495 45.4458H160.586L160.469 45.2926C160.506 45.2873 160.534 45.2739 160.553 45.2523C160.573 45.2306 160.583 45.2029 160.583 45.1694C160.583 45.1293 160.57 45.0977 160.546 45.0748C160.521 45.0519 160.486 45.0402 160.44 45.0398V45.0397ZM160.439 45.1158C160.46 45.1158 160.476 45.1203 160.487 45.1293C160.493 45.1337 160.498 45.1397 160.501 45.1467C160.504 45.1537 160.505 45.1615 160.505 45.1694C160.505 45.1774 160.504 45.1853 160.501 45.1925C160.498 45.1996 160.493 45.2058 160.487 45.2104C160.476 45.2195 160.46 45.224 160.439 45.224H160.352V45.1158H160.439ZM117.756 45.4027H116.941V41.0633H117.74V41.5921C117.74 41.5921 118.442 40.9458 118.858 40.9539C119.669 40.9696 120.153 41.7562 120.153 41.7562C120.153 41.7562 120.545 40.9539 121.431 40.9539C122.741 40.9539 122.933 42.3214 122.933 42.3214V45.3843H122.15V42.686C122.15 42.686 122.153 41.8655 121.303 41.8655C120.424 41.8655 120.344 42.686 120.344 42.686V45.3844H119.529V42.6677C119.529 42.6677 119.451 41.8109 118.715 41.8109C117.758 41.8109 117.74 42.686 117.74 42.686L117.756 45.4027ZM142.537 40.9532C142.12 40.9453 141.418 41.5915 141.418 41.5915V41.0638H140.619V45.4023H141.434L141.418 42.6858C141.418 42.6858 141.436 41.8124 142.393 41.8124C142.571 41.8124 142.709 41.8616 142.818 41.9372V41.9337L143.083 41.0888C142.923 41.0118 142.741 40.9573 142.537 40.9533V40.9532ZM154.015 40.9532C153.599 40.9453 152.897 41.5915 152.897 41.5915V41.0638H152.097V45.4023H152.913L152.897 42.6858C152.897 42.6858 152.915 41.8124 153.872 41.8124C154.049 41.8124 154.187 41.8616 154.297 41.9372V41.9337L154.562 41.0888C154.402 41.0118 154.22 40.9573 154.015 40.9533L154.015 40.9532ZM125.568 40.9355C124.348 40.9355 123.703 42.1863 123.699 43.2312C123.696 44.3023 124.434 45.5377 125.602 45.5377C126.283 45.5377 126.843 44.9638 126.843 44.9638L126.841 45.4058H127.643V41.0622H126.839V41.6094C126.839 41.6094 126.313 40.9356 125.568 40.9356V40.9355ZM125.724 41.8197C126.379 41.8197 126.911 42.4699 126.911 43.2704C126.911 44.071 126.379 44.7177 125.724 44.7177C125.069 44.7177 124.54 44.071 124.54 43.2704C124.54 42.4699 125.068 41.8196 125.724 41.8196L125.724 41.8197ZM148.959 40.9355C147.739 40.9355 147.094 42.1863 147.091 43.2312C147.087 44.3023 147.825 45.5377 148.993 45.5377C149.674 45.5377 150.234 44.9638 150.234 44.9638L150.233 45.4058H151.035V41.0622H150.23V41.6094C150.23 41.6094 149.704 40.9356 148.959 40.9356V40.9355ZM149.115 41.8197C149.77 41.8197 150.302 42.4699 150.302 43.2704C150.302 44.071 149.77 44.7177 149.115 44.7177C148.46 44.7177 147.931 44.071 147.931 43.2704C147.931 42.4699 148.46 41.8196 149.115 41.8196L149.115 41.8197ZM156.66 40.9355C155.441 40.9355 154.795 42.1863 154.792 43.2312C154.789 44.3023 155.527 45.5377 156.694 45.5377C157.376 45.5377 157.935 44.9638 157.935 44.9638L157.934 45.4058H158.736V39.3474H157.931V41.6093C157.931 41.6093 157.405 40.9355 156.66 40.9355ZM156.816 41.8197C157.471 41.8197 158.003 42.4699 158.003 43.2704C158.003 44.071 157.471 44.7177 156.816 44.7177C156.161 44.7177 155.632 44.071 155.632 43.2704C155.632 42.4699 156.161 41.8196 156.816 41.8196V41.8197ZM130.091 45.5484C129.26 45.5484 128.493 44.965 128.493 44.965L128.844 44.3451C128.844 44.3451 129.57 44.7279 130.091 44.7279C130.429 44.7279 130.995 44.6033 131.001 44.2174C131.009 43.8096 130.051 43.6887 130.051 43.6887C130.051 43.6887 128.621 43.6664 128.621 42.3213C128.621 41.4753 129.335 40.9356 130.25 40.9356C130.779 40.9356 131.768 41.4643 131.768 41.4643L131.369 42.1754C131.369 42.1754 130.605 41.8273 130.203 41.8107C129.862 41.7967 129.452 41.9827 129.452 42.3213C129.452 43.2413 131.832 42.2495 131.832 44.1081C131.832 45.3273 130.863 45.5484 130.091 45.5484V45.5484ZM133.156 39.8053V41.0675H132.446V41.98H133.156V44.1618C133.156 44.1618 133.093 45.6376 134.483 45.6376C134.868 45.6376 135.62 45.3132 135.62 45.3132L135.299 44.3649C135.299 44.3649 134.999 44.6563 134.661 44.6465C134.019 44.6281 134.036 44.1583 134.036 44.1583V41.9798H135.361V41.0675H134.037V39.8054H133.156L133.156 39.8053ZM137.982 40.9888C136.674 40.9888 136.021 42.2179 136.026 43.2846C136.032 44.3816 136.621 45.616 138.06 45.616C138.676 45.616 139.541 44.9993 139.541 44.9993L139.169 44.2613C139.169 44.2613 138.579 44.739 138.06 44.739C137.021 44.739 136.954 43.5804 136.954 43.5804H139.735C139.735 43.5804 139.942 40.9889 137.982 40.9889L137.982 40.9888ZM137.863 41.8409C137.894 41.8388 137.927 41.8409 137.96 41.8409C138.939 41.8409 138.932 42.8959 138.932 42.8959H136.954C136.954 42.8959 136.907 41.9029 137.863 41.8409V41.8409ZM146.252 44.2502L146.625 45.1011C146.625 45.1011 146.034 45.5395 145.371 45.5395C143.998 45.5395 143.236 44.3603 143.236 43.2446C143.236 41.4912 144.449 40.9755 145.269 40.9755C146.014 40.9755 146.659 41.4655 146.659 41.4655L146.241 42.3163C146.241 42.3163 145.987 41.8652 145.247 41.8652C144.507 41.8652 144.117 42.5927 144.117 43.2832C144.117 44.0571 144.571 44.7144 145.258 44.7144C145.797 44.7144 146.252 44.2502 146.252 44.2502V44.2502Z" fill="#3A3A3A"/>
<path fill-rule="evenodd" clip-rule="evenodd" d="M160.969 29.5744V28.9885H160.835L160.681 29.3914L160.526 28.9885H160.392V29.5744H160.487V29.1324L160.632 29.5134H160.73L160.874 29.1313V29.5744H160.969ZM160.12 29.5744V29.0885H160.292V28.9894H159.854V29.0885H160.026V29.5744H160.12ZM160.996 20.8632C160.996 29.9304 154.567 37.2808 146.636 37.2808C138.705 37.2808 132.276 29.9305 132.276 20.8632C132.276 11.796 138.705 4.44556 146.636 4.44556C154.567 4.44556 160.996 11.796 160.996 20.8632H160.996Z" fill="#F79F1A"/>
<path fill-rule="evenodd" clip-rule="evenodd" d="M143.281 20.8632C143.281 29.9304 136.851 37.2808 128.921 37.2808C120.99 37.2808 114.561 29.9305 114.561 20.8632C114.561 11.796 120.99 4.44556 128.921 4.44556C136.851 4.44556 143.281 11.796 143.281 20.8632H143.281Z" fill="#EA001B"/>
<path fill-rule="evenodd" clip-rule="evenodd" d="M137.777 7.93921C134.427 10.9448 132.276 15.6152 132.276 20.8617C132.276 26.1083 134.427 30.7824 137.777 33.7879C141.128 30.7824 143.279 26.1083 143.279 20.8617C143.279 15.6152 141.128 10.9448 137.777 7.93921H137.777Z" fill="#FF5F01"/>
<path d="M67.5498 0H3.80562C1.70383 0 0 1.90085 0 4.24567V45.7471C0 48.0919 1.70383 49.9927 3.80562 49.9927H67.5498C69.6516 49.9927 71.3554 48.0919 71.3554 45.7471V4.24567C71.3554 1.90085 69.6516 0 67.5498 0Z" fill="#0E4595"/>
<path fill-rule="evenodd" clip-rule="evenodd" d="M26.4681 35.4755L29.6421 14.6969H34.7188L31.5425 35.4755H26.4681ZM49.8831 15.1452C48.8772 14.7242 47.3013 14.2725 45.3333 14.2725C40.317 14.2725 36.7835 17.0905 36.7535 21.1295C36.7252 24.1153 39.276 25.7809 41.2016 26.7748C43.1777 27.7931 43.8419 28.4427 43.8326 29.3522C43.8201 30.7449 42.2545 31.3812 40.7955 31.3812C38.7636 31.3812 37.6841 31.0664 36.0169 30.2905L35.3628 29.9603L34.6502 34.6119C35.836 35.1918 38.0286 35.6943 40.3051 35.7203C45.6415 35.7203 49.1057 32.9345 49.1452 28.6213C49.1642 26.2578 47.8117 24.4589 44.8829 22.9759C43.1085 22.0148 42.0218 21.3732 42.0333 20.4C42.0333 19.5363 42.9531 18.6127 44.9404 18.6127C46.6006 18.584 47.8031 18.9879 48.7401 19.4088L49.1949 19.6486L49.8832 15.1451L49.8831 15.1452ZM62.9466 14.6969H59.0239C57.8085 14.6969 56.8992 15.067 56.3654 16.42L48.8261 35.4623H54.157C54.157 35.4623 55.0285 32.9018 55.2257 32.3398C55.8083 32.3398 60.9868 32.3487 61.7273 32.3487C61.8791 33.0761 62.3448 35.4623 62.3448 35.4623H67.0555L62.9466 14.6969ZM56.7227 28.114C57.1426 26.9168 58.7454 22.3056 58.7454 22.3056C58.7153 22.361 59.1621 21.1026 59.4185 20.3224L59.7616 22.114C59.7616 22.114 60.7336 27.0738 60.9367 28.114H56.7227ZM22.1589 14.697L17.1888 28.8665L16.6592 25.9869C15.7339 22.6675 12.8512 19.0712 9.62848 17.2708L14.1729 35.4425L19.5442 35.4356L27.5363 14.697H22.1589Z" fill="white"/>
<path fill-rule="evenodd" clip-rule="evenodd" d="M12.5501 14.6978H4.36414L4.29935 15.1301C10.6679 16.85 14.8819 21.0064 16.6313 26.0005L14.8512 16.452C14.5439 15.1363 13.6527 14.7437 12.5501 14.6979" fill="#F2AE14"/>
<defs>
<radialGradient id="paint0_radial_110_1527" cx="0" cy="0" r="1" gradientUnits="userSpaceOnUse" gradientTransform="translate(546.37 18.2462) scale(5.18536 5.76261)">
<stop offset="0.01" stop-color="#FFEFE1"/>
<stop offset="0.11" stop-color="#FFEAD8"/>
<stop offset="0.28" stop-color="#FDDCC0"/>
<stop offset="0.49" stop-color="#FBC698"/>
<stop offset="0.74" stop-color="#F8A761"/>
<stop offset="1" stop-color="#F58220"/>
</radialGradient>
</defs>
                    </svg>