<svg width="81" height="78" viewBox="0 0 81 78" fill="none" xmlns="http://www.w3.org/2000/svg">
<path d="M0 3.88486C4.91768 2.68582 8.44627 1.48679 12.0707 1.00718C20.5968 -0.143891 25.8657 3.14945 28.4204 11.3189C31.5179 21.1989 34.312 31.1748 37.2818 41.1028C38.0002 43.5328 38.8784 45.9149 41.1776 48.3929C43.3331 41.2147 45.4885 34.0205 47.66 26.8423C49.2726 21.5026 50.7894 16.131 52.5617 10.8552C55.0046 3.51715 60.018 0.0479544 67.6341 0.863296C71.7534 1.29495 75.761 2.70181 80.6308 3.85288C74.819 21.5346 69.2786 38.401 63.7223 55.2674C62.2214 59.8077 60.497 64.2681 59.2038 68.8724C58.0542 72.9331 55.7231 75.2832 51.5239 75.7468C47.5801 76.1785 43.6524 76.9938 39.7087 77.0098C25.5464 77.0418 23.9976 75.8268 19.4791 62.3017C13.0925 43.1651 6.73786 24.0606 0 3.88486Z" fill="#2B9656"/>
</svg>
