<svg width="246" height="101" viewBox="-18 -12 246 101" fill="none" xmlns="http://www.w3.org/2000/svg">
<path d="M195.489 0.851561H16.924C16.2731 0.851561 15.63 0.851561 14.9809 0.855298C14.4374 0.859035 13.8984 0.869891 13.3497 0.879028C12.1578 0.893793 10.9688 1.00417 9.79282 1.20921C8.61853 1.41871 7.48102 1.81368 6.41877 2.38076C5.35782 2.95264 4.3884 3.69574 3.54568 4.58309C2.69853 5.46796 1.99237 6.49074 1.45434 7.61211C0.914832 8.73124 0.540735 9.93051 0.34497 11.1685C0.147344 12.4049 0.0409995 13.6555 0.0268912 14.9092C0.0104192 15.4821 0.00867972 16.0569 0 16.6298V59.8189C0.00867972 60.3991 0.0104192 60.9611 0.0268912 61.5415C0.0410038 62.7951 0.147348 64.0457 0.34497 65.282C0.540195 66.5207 0.914314 67.7207 1.45434 68.8402C1.99212 69.958 2.69838 70.9766 3.54568 71.8566C4.3852 72.7479 5.35525 73.4915 6.41877 74.059C7.48101 74.6276 8.6184 75.0249 9.79282 75.2376C10.969 75.441 12.1579 75.5514 13.3497 75.568C13.8984 75.5807 14.4374 75.588 14.9809 75.588C15.63 75.5917 16.2731 75.5917 16.924 75.5917H195.489C196.127 75.5917 196.775 75.5917 197.413 75.588C197.954 75.588 198.508 75.5807 199.049 75.568C200.239 75.5523 201.425 75.4419 202.599 75.2376C203.777 75.0234 204.919 74.6262 205.986 74.059C207.049 73.4911 208.018 72.7476 208.857 71.8566C209.702 70.9732 210.409 69.9553 210.954 68.8402C211.49 67.7199 211.86 66.52 212.053 65.282C212.251 64.0455 212.361 62.7952 212.382 61.5415C212.389 60.9611 212.389 60.3991 212.389 59.8189C212.403 59.1401 212.403 58.465 212.403 57.7751V18.6699C212.403 17.9856 212.403 17.3068 212.389 16.6298C212.389 16.0569 212.389 15.4821 212.382 14.9091C212.361 13.6553 212.251 12.405 212.053 11.1684C211.86 9.93115 211.489 8.73198 210.954 7.61203C209.858 5.36436 208.121 3.53478 205.986 2.3806C204.919 1.8149 203.777 1.42004 202.599 1.20904C201.426 1.0031 200.239 0.892683 199.049 0.878767C198.508 0.869648 197.954 0.858699 197.413 0.855055C196.775 0.851318 196.127 0.851318 195.489 0.851318V0.851561Z" fill="#A6A6A6"/>
<path d="M14.9895 73.9566C14.4487 73.9566 13.921 73.9493 13.3844 73.9366C12.2729 73.9213 11.1639 73.8195 10.0667 73.6318C9.04358 73.4463 8.05245 73.1013 7.126 72.6081C6.20805 72.1189 5.3708 71.4776 4.64634 70.7086C3.91138 69.9486 3.2995 69.0672 2.83494 68.0992C2.36525 67.1249 2.0402 66.0806 1.87111 65.0027C1.68851 63.8445 1.58971 62.6733 1.57558 61.4993C1.56432 61.1052 1.54959 59.7931 1.54959 59.7931V16.6297C1.54959 16.6297 1.56528 15.3378 1.57567 14.9582C1.5892 13.7861 1.68742 12.6167 1.86948 11.4602C2.03888 10.3794 2.36418 9.33205 2.83412 8.3546C3.29698 7.38731 3.90546 6.50522 4.63599 5.74253C5.36569 4.9726 6.20562 4.32793 7.12513 3.83204C8.04945 3.34041 9.03871 2.9978 10.0598 2.81569C11.1606 2.62616 12.2734 2.52369 13.3888 2.50914L14.9904 2.48633H197.404L199.025 2.51006C200.13 2.52388 201.233 2.62544 202.323 2.81386C203.355 2.99825 204.354 3.34325 205.289 3.83752C207.131 4.83688 208.63 6.41796 209.576 8.35916C210.038 9.32987 210.359 10.3686 210.526 11.4402C210.71 12.6061 210.813 13.7847 210.834 14.9664C210.839 15.4956 210.839 16.064 210.839 16.6297C210.853 17.3304 210.853 17.9973 210.853 18.6697V57.775C210.853 58.4538 210.853 59.1162 210.839 59.784C210.839 60.3916 210.839 60.9482 210.833 61.5211C210.812 62.6818 210.71 63.8393 210.529 64.9844C210.364 66.0701 210.04 67.1225 209.571 68.1048C209.103 69.0623 208.494 69.9361 207.768 70.694C207.043 71.4671 206.204 72.1123 205.284 72.6045C204.352 73.1015 203.354 73.4479 202.323 73.6318C201.226 73.8205 200.117 73.9223 199.006 73.9366C198.486 73.9493 197.941 73.9566 197.413 73.9566L195.489 73.9603L14.9895 73.9566Z" fill="black"/>
<path d="M43.9646 38.7835C43.9837 37.2239 44.3772 35.6948 45.1086 34.3383C45.8399 32.9819 46.8853 31.8422 48.1475 31.0253C47.3457 29.8199 46.2879 28.8278 45.0581 28.1279C43.8283 27.4281 42.4605 27.0397 41.0632 26.9937C38.0826 26.6644 35.193 28.8712 33.6741 28.8712C32.1258 28.8712 29.7872 27.0264 27.269 27.081C25.6401 27.1364 24.0527 27.635 22.6613 28.5282C21.2699 29.4215 20.1221 30.6789 19.3296 32.178C15.8968 38.4345 18.4574 47.6295 21.7457 52.6868C23.391 55.1632 25.3138 57.9295 27.8298 57.8314C30.2918 57.7239 31.2113 56.1787 34.1832 56.1787C37.1275 56.1787 37.9902 57.8314 40.5572 57.769C43.199 57.7238 44.8635 55.2816 46.4511 52.7817C47.6332 51.0172 48.5428 49.067 49.1462 47.0033C47.6114 46.32 46.3016 45.1761 45.3801 43.7144C44.4587 42.2527 43.9664 40.5378 43.9646 38.7835Z" fill="white"/>
<path d="M39.116 23.6673C40.5564 21.8469 41.2661 19.5072 41.0942 17.145C38.8936 17.3883 36.8607 18.4955 35.4008 20.246C34.687 21.1012 34.1403 22.096 33.792 23.1737C33.4437 24.2514 33.3005 25.3908 33.3707 26.5268C34.4715 26.5387 35.5604 26.2876 36.5556 25.7922C37.5508 25.2969 38.4262 24.5704 39.116 23.6673Z" fill="white"/>
<path d="M75.0862 51.5646H66.6845L64.6668 57.8361H61.1082L69.0662 34.6331H72.7635L80.7215 57.8361H77.1021L75.0862 51.5646ZM67.5546 48.6706H74.2144L70.9314 38.4924H70.8395L67.5546 48.6706Z" fill="white"/>
<path d="M97.9081 49.3763C97.9081 54.6333 95.2352 58.0108 91.2016 58.0108C90.1798 58.0671 89.1636 57.8193 88.2694 57.2959C87.3752 56.7724 86.639 55.9945 86.1453 55.0511H86.069V63.4302H82.7703V40.9169H85.9633V43.7306H86.024C86.5404 42.7918 87.289 42.0179 88.19 41.4912C89.091 40.9646 90.1109 40.705 91.1409 40.7399C95.2195 40.74 97.9081 44.1339 97.9081 49.3763ZM94.5176 49.3763C94.5176 45.9513 92.8362 43.6996 90.2708 43.6996C87.7504 43.6996 86.0551 45.9988 86.0551 49.3763C86.0551 52.7849 87.7504 55.0676 90.2708 55.0676C92.8362 55.0676 94.5176 52.8323 94.5176 49.3763Z" fill="white"/>
<path d="M115.596 49.3763C115.596 54.6333 112.923 58.0108 108.889 58.0108C107.867 58.0671 106.851 57.8193 105.957 57.2958C105.063 56.7724 104.327 55.9945 103.833 55.0511H103.757V63.4302H100.458V40.9169H103.651V43.7306H103.711C104.228 42.7918 104.976 42.0179 105.878 41.4912C106.779 40.9646 107.798 40.705 108.828 40.7399C112.907 40.7399 115.596 44.1339 115.596 49.3763ZM112.205 49.3763C112.205 45.9513 110.524 43.6996 107.958 43.6996C105.438 43.6996 103.743 45.9987 103.743 49.3763C103.743 52.7848 105.438 55.0675 107.958 55.0675C110.524 55.0675 112.205 52.8323 112.205 49.3763H112.205Z" fill="white"/>
<path d="M127.286 51.3686C127.53 53.6696 129.653 55.1804 132.555 55.1804C135.335 55.1804 137.336 53.6695 137.336 51.5948C137.336 49.7938 136.129 48.7155 133.273 47.9764L130.416 47.252C126.369 46.2229 124.49 44.2303 124.49 40.9969C124.49 36.9935 127.804 34.2437 132.51 34.2437C137.168 34.2437 140.361 36.9935 140.468 40.9969H137.138C136.939 38.6813 135.121 37.2836 132.463 37.2836C129.806 37.2836 127.988 38.6978 127.988 40.7561C127.988 42.3965 129.149 43.3617 131.99 44.1007L134.418 44.7284C138.941 45.8542 140.82 47.7666 140.82 51.1605C140.82 55.5015 137.535 58.2203 132.311 58.2203C127.422 58.2203 124.122 55.5653 123.909 51.3685L127.286 51.3686Z" fill="white"/>
<path d="M147.939 36.9131V40.9165H150.995V43.6663H147.939V52.9924C147.939 54.4413 148.551 55.1164 149.894 55.1164C150.257 55.1097 150.619 55.0829 150.979 55.0361V57.7695C150.375 57.8883 149.762 57.9421 149.147 57.93C145.894 57.93 144.625 56.6436 144.625 53.3628V43.6663H142.288V40.9165H144.625V36.9131H147.939Z" fill="white"/>
<path d="M152.765 49.3763C152.765 44.0537 155.743 40.709 160.387 40.709C165.046 40.709 168.01 44.0536 168.01 49.3763C168.01 54.7136 165.062 58.0437 160.387 58.0437C155.713 58.0437 152.765 54.7136 152.765 49.3763ZM164.649 49.3763C164.649 45.7251 163.059 43.5701 160.387 43.5701C157.714 43.5701 156.126 45.7415 156.126 49.3763C156.126 53.0422 157.714 55.1808 160.387 55.1808C163.059 55.1808 164.649 53.0422 164.649 49.3763H164.649Z" fill="white"/>
<path d="M170.73 40.9173H173.876V43.7966H173.952C174.165 42.8973 174.665 42.1026 175.369 41.546C176.073 40.9894 176.938 40.7049 177.818 40.7402C178.198 40.7388 178.577 40.7823 178.948 40.8698V44.1178C178.468 43.9634 177.967 43.8925 177.466 43.908C176.986 43.8875 176.509 43.9764 176.065 44.1687C175.622 44.3609 175.223 44.6519 174.896 45.0217C174.57 45.3914 174.323 45.8312 174.173 46.3108C174.024 46.7904 173.974 47.2984 174.028 47.8V57.8341H170.73L170.73 40.9173Z" fill="white"/>
<path d="M194.157 52.8652C193.713 55.9362 190.872 58.0437 187.237 58.0437C182.562 58.0437 179.66 54.7465 179.66 49.4566C179.66 44.1504 182.577 40.709 187.098 40.709C191.544 40.709 194.34 43.9241 194.34 49.0534V50.2431H182.99V50.4529C182.938 51.0755 183.012 51.7027 183.207 52.2928C183.403 52.883 183.715 53.4226 184.124 53.8758C184.533 54.329 185.029 54.6854 185.579 54.9214C186.129 55.1574 186.72 55.2676 187.313 55.2446C188.093 55.3215 188.875 55.1314 189.544 54.7027C190.212 54.274 190.732 53.6295 191.024 52.8652L194.157 52.8652ZM183.006 47.8162H191.04C191.069 47.2564 190.989 46.6962 190.803 46.1708C190.617 45.6454 190.33 45.166 189.96 44.7628C189.59 44.3597 189.145 44.0414 188.652 43.828C188.16 43.6146 187.631 43.5106 187.098 43.5227C186.561 43.5193 186.028 43.628 185.531 43.8424C185.034 44.0567 184.583 44.3726 184.202 44.7718C183.822 45.171 183.52 45.6455 183.315 46.1681C183.109 46.6906 183.004 47.2508 183.006 47.8162V47.8162Z" fill="white"/>
<path d="M67.1413 17.1674C67.8329 17.1152 68.5268 17.2252 69.1731 17.4894C69.8194 17.7537 70.4019 18.1657 70.8787 18.6956C71.3554 19.2256 71.7145 19.8603 71.93 20.554C72.1455 21.2478 72.212 21.9832 72.1248 22.7072C72.1248 26.2691 70.2961 28.3165 67.1413 28.3165H63.3157V17.1674H67.1413ZM64.9607 26.7398H66.9575C67.4517 26.7709 67.9462 26.6856 68.4052 26.4901C68.8641 26.2946 69.2758 25.9939 69.6104 25.6098C69.9449 25.2257 70.1939 24.7679 70.3392 24.2697C70.4845 23.7715 70.5225 23.2455 70.4503 22.73C70.5173 22.2164 70.4755 21.6937 70.3279 21.1992C70.1804 20.7046 69.9308 20.2506 69.597 19.8695C69.2632 19.4885 68.8534 19.1899 68.3971 18.9951C67.9408 18.8004 67.4492 18.7143 66.9575 18.743H64.9607V26.7398Z" fill="white"/>
<path d="M73.983 24.1031C73.9328 23.5502 73.9928 22.9923 74.1594 22.4652C74.326 21.9382 74.5953 21.4536 74.9502 21.0426C75.3051 20.6315 75.7377 20.3031 76.2203 20.0784C76.7028 19.8536 77.2246 19.7375 77.7523 19.7375C78.2799 19.7375 78.8018 19.8536 79.2843 20.0784C79.7668 20.3031 80.1994 20.6315 80.5543 21.0426C80.9092 21.4536 81.1786 21.9382 81.3451 22.4652C81.5117 22.9923 81.5718 23.5502 81.5215 24.1031C81.5727 24.6566 81.5134 25.2152 81.3472 25.7431C81.1811 26.271 80.9119 26.7565 80.5569 27.1683C80.2019 27.5802 79.769 27.9093 79.286 28.1345C78.803 28.3597 78.2806 28.4761 77.7523 28.4761C77.224 28.4761 76.7016 28.3597 76.2185 28.1345C75.7355 27.9093 75.3026 27.5802 74.9476 27.1683C74.5926 26.7565 74.3234 26.271 74.1573 25.7431C73.9912 25.2152 73.9318 24.6566 73.983 24.1031ZM79.8991 24.1031C79.8991 22.2793 79.1208 21.2127 77.7549 21.2127C76.3838 21.2127 75.6125 22.2793 75.6125 24.1031C75.6125 25.9415 76.3838 26.9998 77.7549 26.9998C79.1208 26.9998 79.8991 25.9342 79.8991 24.1031H79.8991Z" fill="white"/>
<path d="M91.5423 28.3136H89.906L88.254 22.1169H88.1292L86.4842 28.3136H84.8635L82.6604 19.8999H84.2603L85.6921 26.3201H85.81L87.4532 19.8999H88.9665L90.6097 26.3201H90.7345L92.1594 19.8999H93.7367L91.5423 28.3136Z" fill="white"/>
<path d="M95.5897 19.9002H97.1082V21.2368H97.2261C97.426 20.7567 97.7633 20.3543 98.1908 20.0856C98.6184 19.8169 99.1149 19.6953 99.6112 19.7378C100 19.707 100.391 19.7687 100.754 19.9184C101.117 20.068 101.443 20.3018 101.709 20.6023C101.975 20.9029 102.173 21.2625 102.289 21.6545C102.404 22.0466 102.435 22.461 102.378 22.8671V28.3138H100.8V23.2841C100.8 21.932 100.242 21.2596 99.0756 21.2596C98.8115 21.2467 98.548 21.294 98.3029 21.3983C98.0579 21.5026 97.8371 21.6615 97.6559 21.864C97.4746 22.0665 97.3371 22.3079 97.2527 22.5716C97.1683 22.8353 97.1391 23.1151 97.1671 23.3918V28.3139H95.5897L95.5897 19.9002Z" fill="white"/>
<path d="M104.891 16.6155H106.469V28.3137H104.891V16.6155Z" fill="white"/>
<path d="M108.661 24.1032C108.611 23.5503 108.671 22.9924 108.838 22.4653C109.004 21.9382 109.274 21.4536 109.629 21.0426C109.984 20.6315 110.416 20.3031 110.899 20.0784C111.381 19.8536 111.903 19.7375 112.431 19.7375C112.959 19.7375 113.48 19.8536 113.963 20.0784C114.446 20.3031 114.878 20.6315 115.233 21.0426C115.588 21.4536 115.857 21.9382 116.024 22.4653C116.191 22.9924 116.251 23.5503 116.201 24.1032C116.252 24.6567 116.192 25.2154 116.026 25.7433C115.86 26.2712 115.591 26.7567 115.236 27.1685C114.881 27.5803 114.448 27.9094 113.965 28.1346C113.482 28.3598 112.959 28.4762 112.431 28.4762C111.903 28.4762 111.38 28.3598 110.897 28.1346C110.414 27.9094 109.981 27.5803 109.626 27.1685C109.271 26.7567 109.002 26.2712 108.836 25.7433C108.669 25.2154 108.61 24.6567 108.661 24.1032ZM114.577 24.1032C114.577 22.2794 113.799 21.2129 112.433 21.2129C111.062 21.2129 110.291 22.2794 110.291 24.1033C110.291 25.9417 111.062 27 112.433 27C113.799 27 114.577 25.9343 114.577 24.1032H114.577Z" fill="white"/>
<path d="M117.861 25.9342C117.861 24.4197 118.932 23.5466 120.834 23.4225L122.999 23.2912V22.5649C122.999 21.6763 122.441 21.1745 121.363 21.1745C120.482 21.1745 119.872 21.5148 119.697 22.1097H118.17C118.331 20.6645 119.622 19.7375 121.435 19.7375C123.439 19.7375 124.569 20.7876 124.569 22.5649V28.3137H123.051V27.1313H122.926C122.673 27.5554 122.317 27.9012 121.895 28.1333C121.474 28.3653 121.001 28.4754 120.525 28.4523C120.19 28.489 119.851 28.4514 119.53 28.3417C119.209 28.232 118.914 28.0528 118.663 27.8155C118.412 27.5783 118.211 27.2883 118.072 26.9643C117.934 26.6402 117.862 26.2894 117.861 25.9342ZM122.999 25.2153V24.5119L121.047 24.6433C119.946 24.7208 119.447 25.1149 119.447 25.8567C119.447 26.6139 120.071 27.0546 120.929 27.0546C121.181 27.0814 121.435 27.0547 121.676 26.976C121.918 26.8974 122.141 26.7684 122.335 26.5968C122.528 26.4252 122.686 26.2145 122.8 25.9771C122.914 25.7398 122.982 25.4807 122.999 25.2153Z" fill="white"/>
<path d="M126.643 24.1032C126.643 21.4446 127.941 19.7604 129.96 19.7604C130.46 19.7362 130.956 19.8621 131.39 20.1235C131.824 20.3849 132.178 20.7709 132.411 21.2365H132.529V16.6155H134.107V28.3137H132.595V26.9844H132.47C132.219 27.4468 131.852 27.8281 131.41 28.0868C130.967 28.3456 130.466 28.472 129.96 28.4524C127.927 28.4524 126.643 26.7682 126.643 24.1032ZM128.272 24.1032C128.272 25.8878 129.071 26.9616 130.408 26.9616C131.737 26.9616 132.559 25.8723 132.559 24.1105C132.559 22.357 131.728 21.2521 130.408 21.2521C129.08 21.2521 128.272 22.3332 128.272 24.1032H128.272Z" fill="white"/>
<path d="M140.633 24.1031C140.583 23.5502 140.643 22.9923 140.809 22.4652C140.976 21.9382 141.245 21.4536 141.6 21.0426C141.955 20.6315 142.388 20.3031 142.87 20.0784C143.353 19.8536 143.874 19.7375 144.402 19.7375C144.93 19.7375 145.452 19.8536 145.934 20.0784C146.417 20.3031 146.849 20.6315 147.204 21.0426C147.559 21.4536 147.828 21.9382 147.995 22.4652C148.161 22.9923 148.222 23.5502 148.171 24.1031C148.223 24.6566 148.163 25.2152 147.997 25.7431C147.831 26.271 147.562 26.7565 147.207 27.1683C146.852 27.5802 146.419 27.9093 145.936 28.1345C145.453 28.3597 144.93 28.4761 144.402 28.4761C143.874 28.4761 143.351 28.3597 142.868 28.1345C142.385 27.9093 141.952 27.5802 141.597 27.1683C141.242 26.7565 140.973 26.271 140.807 25.7431C140.641 25.2152 140.582 24.6566 140.633 24.1031ZM146.549 24.1031C146.549 22.2793 145.771 21.2127 144.405 21.2127C143.034 21.2127 142.262 22.2793 142.262 24.1031C142.262 25.9415 143.034 26.9998 144.405 26.9998C145.771 26.9998 146.549 25.9342 146.549 24.1031Z" fill="white"/>
<path d="M150.288 19.9002H151.806V21.2368H151.924C152.124 20.7567 152.461 20.3543 152.889 20.0856C153.316 19.8169 153.813 19.6953 154.309 19.7378C154.698 19.707 155.089 19.7687 155.452 19.9184C155.815 20.068 156.141 20.3018 156.407 20.6023C156.673 20.9029 156.871 21.2625 156.987 21.6545C157.102 22.0466 157.133 22.461 157.076 22.8671V28.3138H155.498V23.2841C155.498 21.932 154.94 21.2596 153.774 21.2596C153.51 21.2467 153.246 21.294 153.001 21.3983C152.756 21.5026 152.535 21.6615 152.354 21.864C152.173 22.0665 152.035 22.3079 151.951 22.5716C151.866 22.8353 151.837 23.1151 151.865 23.3918V28.3139H150.288V19.9002Z" fill="white"/>
<path d="M165.989 17.8115V19.9446H167.72V21.3433H165.989V25.6696C165.989 26.551 166.334 26.9369 167.119 26.9369C167.32 26.9362 167.521 26.9234 167.72 26.8986V28.2817C167.437 28.335 167.15 28.3634 166.862 28.3665C165.108 28.3665 164.41 27.7169 164.41 26.0948V21.3432H163.141V19.9445H164.41V17.8115H165.989Z" fill="white"/>
<path d="M169.875 16.6155H171.439V21.2521H171.563C171.773 20.7675 172.12 20.3628 172.556 20.0931C172.992 19.8234 173.496 19.7018 174.001 19.7449C174.387 19.7227 174.774 19.7907 175.133 19.944C175.492 20.0973 175.815 20.3321 176.078 20.6317C176.341 20.9313 176.537 21.2883 176.654 21.6772C176.771 22.0661 176.805 22.4773 176.753 22.8815V28.3137H175.174V23.2912C175.174 21.9473 174.58 21.2666 173.465 21.2666C173.194 21.2432 172.921 21.2825 172.666 21.3816C172.411 21.4807 172.179 21.6374 171.988 21.8405C171.796 22.0437 171.649 22.2885 171.556 22.5579C171.464 22.8272 171.428 23.1145 171.453 23.3997V28.3137H169.875L169.875 16.6155Z" fill="white"/>
<path d="M185.951 26.0421C185.736 26.811 185.272 27.4762 184.639 27.9212C184.006 28.3661 183.244 28.5626 182.487 28.4762C181.961 28.4908 181.437 28.3847 180.954 28.1651C180.47 27.9455 180.038 27.6177 179.686 27.2045C179.335 26.7913 179.073 26.3026 178.919 25.7723C178.766 25.2419 178.723 24.6827 178.795 24.1334C178.725 23.5824 178.768 23.022 178.922 22.4901C179.075 21.9582 179.336 21.4672 179.685 21.0504C180.034 20.6336 180.465 20.3007 180.947 20.0742C181.429 19.8477 181.952 19.7329 182.48 19.7377C184.704 19.7377 186.046 21.3371 186.046 23.9792V24.5586H180.402V24.6516C180.377 24.9604 180.414 25.2712 180.51 25.5641C180.606 25.857 180.759 26.1255 180.96 26.3524C181.16 26.5794 181.404 26.7597 181.674 26.8819C181.945 27.0041 182.236 27.0655 182.531 27.062C182.908 27.1097 183.29 27.0382 183.629 26.8565C183.967 26.6749 184.247 26.3914 184.432 26.042L185.951 26.0421ZM180.402 23.3305H184.439C184.459 23.0482 184.422 22.7645 184.332 22.4979C184.242 22.2312 184.099 21.9874 183.914 21.7821C183.729 21.5768 183.505 21.4146 183.256 21.3059C183.008 21.1972 182.741 21.1444 182.472 21.1509C182.199 21.1473 181.928 21.2012 181.675 21.3095C181.423 21.4178 181.193 21.5782 181 21.7813C180.807 21.9845 180.655 22.2262 180.552 22.4923C180.45 22.7583 180.398 23.0434 180.402 23.3305H180.402Z" fill="white"/>
</svg>
