<svg width="70" height="78" viewBox="0 0 70 78" fill="none" xmlns="http://www.w3.org/2000/svg">
<path d="M24.5689 44.7799C25.3513 51.9261 28.1774 55.1075 35.3783 56.2746C44.6708 57.7774 52.3347 55.5392 62.0423 48.4729C70.7919 53.8765 72.2289 62.5735 64.5331 69.1282C60.4776 72.5814 54.9851 75.3472 49.796 76.1785C42.5791 77.3456 34.8833 77.2976 27.6345 76.1625C13.7117 73.9563 4.46713 65.627 2.15199 51.3825C0.938535 43.8686 0.267944 35.955 1.27383 28.473C3.68477 10.5355 19.3639 -0.671427 38.843 0.559579C41.4775 0.719449 44.1119 1.1511 46.7145 1.67867C61.1482 4.55635 68.7801 13.5411 69.323 28.2492C69.802 40.7511 69.8499 41.2307 57.5717 42.7335C46.8741 44.0445 36.0329 44.1084 24.5689 44.7799ZM24.4093 29.3204C32.0732 30.6793 38.7951 31.4466 45.517 28.8887C45.1657 22.318 42.1001 19.5363 36.4799 19.2485C29.8538 18.9128 27.6984 20.5275 24.4093 29.3204Z" fill="#2B9656"/>
</svg>
