<svg width="74" height="109" viewBox="0 0 74 109" fill="none" xmlns="http://www.w3.org/2000/svg">
<path d="M51.0756 7.22615C61.3739 0.60749 65.0622 0.0479407 73.6682 3.70899V26.1389C62.9387 25.1956 52.752 24.3004 42.5495 23.3731C40.4419 23.1813 38.3343 22.7176 36.2267 22.7496C27.9082 22.8775 22.3199 28.6489 22.3039 36.9462C22.3039 45.2914 27.7964 51.3665 36.115 51.0947C44.3217 50.8389 52.4966 49.6239 60.7034 48.8725C64.663 48.5048 68.6227 48.2011 73.5404 47.7854C74.1951 63.149 73.9396 77.8252 67.6009 91.7179C66.3236 94.5317 64.1361 97.1216 61.8689 99.2958C50.0856 110.567 24.5073 112.309 11.1753 102.941C1.18026 95.9066 0.62143 84.4278 10.377 76.8659C16.8115 83.0529 24.683 86.4742 33.7998 86.3463C43.0764 86.2184 48.0419 81.3903 48.3293 72.4535C42.8688 72.9171 37.4242 73.7964 31.9796 73.7804C13.2829 73.7644 1.89877 63.5966 0.493719 45.1156C-0.0491417 38.0812 0.0306703 30.6792 1.59539 23.8527C6.46517 2.55792 30.4149 -6.37887 48.7285 5.77132C49.3991 6.21896 50.0856 6.61864 51.0756 7.22615Z" fill="#2B9656"/>
</svg>
