<svg width="73" height="75" viewBox="0 0 73 75" fill="none" xmlns="http://www.w3.org/2000/svg">
<path d="M30.3855 30.4874L0.895411 26.7944C4.37611 9.86406 21.5401 -1.7106 39.9654 0.207855C58.4866 2.12631 72.8244 18.1454 72.9841 37.0901C73.1438 56.2906 59.1092 72.1338 39.5663 74.356C19.7359 76.6102 2.42818 61.5823 0.608002 47.05C11.0501 45.899 21.4762 44.7479 31.6788 43.6288C30.5292 47.1939 28.8527 50.5352 28.5653 54.0044C28.4216 55.715 30.4813 58.273 32.2057 59.2482C33.1797 59.7917 35.878 58.225 37.1872 56.978C42.1528 52.1979 46.7831 47.05 51.7327 42.2379C54.926 39.1204 55.7722 36.0509 52.4991 32.6137C47.1982 27.0342 41.8814 21.4387 36.4049 16.0351C35.5108 15.1558 32.8923 14.4843 32.4612 14.9639C30.8166 16.7865 28.9645 19.0406 28.6931 21.3108C28.3738 23.9487 29.6191 26.7784 30.3855 30.4874Z" fill="#2B9656"/>
</svg>
